<?xml version="1.0" encoding="UTF-8" standalone="no"?><svg xmlns="http://www.w3.org/2000/svg" xmlns:xlink="http://www.w3.org/1999/xlink" clip-rule="evenodd" stroke-miterlimit="10" viewBox="0 0 406 59"><desc>SVG generated by Keynote</desc><defs></defs><g transform="matrix(1.00, 0.00, -0.00, -1.00, 0.0, 59.0)"><text xml:space="preserve" font-family="GillSans-Light,Gill Sans" font-size="50.0" fill="#525252" transform="matrix(1.00, 0.00, -0.00, -1.00, 0.3, 12.9)">s</text><text xml:space="preserve" font-family="GillSans-Light,Gill Sans" font-size="50.0" fill="#525252" transform="matrix(1.00, 0.00, -0.00, -1.00, 18.0, 12.9)">e</text><text xml:space="preserve" font-family="GillSans-Light,Gill Sans" font-size="50.0" fill="#525252" transform="matrix(1.00, 0.00, -0.00, -1.00, 41.9, 12.9)">b</text><text xml:space="preserve" font-family="GillSans-Light,Gill Sans" font-size="50.0" fill="#525252" transform="matrix(1.00, 0.00, -0.00, -1.00, 67.4, 12.9)">a</text><text xml:space="preserve" font-family="GillSans-Light,Gill Sans" font-size="50.0" fill="#525252" transform="matrix(1.00, 0.00, -0.00, -1.00, 88.8, 12.9)">.</text><text xml:space="preserve" font-family="GillSans-Light,Gill Sans" font-size="50.0" fill="#525252" transform="matrix(1.00, 0.00, -0.00, -1.00, 97.6, 12.9)">r</text><text xml:space="preserve" font-family="GillSans-Light,Gill Sans" font-size="50.0" fill="#525252" transform="matrix(1.00, 0.00, -0.00, -1.00, 115.5, 12.9)">i</text><text xml:space="preserve" font-family="GillSans-Light,Gill Sans" font-size="50.0" fill="#525252" transform="matrix(1.00, 0.00, -0.00, -1.00, 124.9, 12.9)">o</text><text xml:space="preserve" font-family="GillSans-Light,Gill Sans" font-size="50.0" fill="#525252" transform="matrix(1.00, 0.00, -0.00, -1.00, 152.0, 12.9)">s</text><text xml:space="preserve" font-family="GillSans-Light,Gill Sans" font-size="50.0" fill="#525252" transform="matrix(1.00, 0.00, -0.00, -1.00, 169.7, 12.9)">@</text><text xml:space="preserve" font-family="GillSans-Light,Gill Sans" font-size="50.0" fill="#525252" transform="matrix(1.00, 0.00, -0.00, -1.00, 209.7, 12.9)">g</text><text xml:space="preserve" font-family="GillSans-Light,Gill Sans" font-size="50.0" fill="#525252" transform="matrix(1.00, 0.00, -0.00, -1.00, 231.0, 12.9)">m</text><text xml:space="preserve" font-family="GillSans-Light,Gill Sans" font-size="50.0" fill="#525252" transform="matrix(1.00, 0.00, -0.00, -1.00, 269.5, 12.9)">a</text><text xml:space="preserve" font-family="GillSans-Light,Gill Sans" font-size="50.0" fill="#525252" transform="matrix(1.00, 0.00, -0.00, -1.00, 290.9, 12.9)">i</text><text xml:space="preserve" font-family="GillSans-Light,Gill Sans" font-size="50.0" fill="#525252" transform="matrix(1.00, 0.00, -0.00, -1.00, 300.3, 12.9)">l</text><text xml:space="preserve" font-family="GillSans-Light,Gill Sans" font-size="50.0" fill="#525252" transform="matrix(1.00, 0.00, -0.00, -1.00, 309.7, 12.9)">.</text><text xml:space="preserve" font-family="GillSans-Light,Gill Sans" font-size="50.0" fill="#525252" transform="matrix(1.00, 0.00, -0.00, -1.00, 318.5, 12.9)">c</text><text xml:space="preserve" font-family="GillSans-Light,Gill Sans" font-size="50.0" fill="#525252" transform="matrix(1.00, 0.00, -0.00, -1.00, 339.3, 12.9)">o</text><text xml:space="preserve" font-family="GillSans-Light,Gill Sans" font-size="50.0" fill="#525252" transform="matrix(1.00, 0.00, -0.00, -1.00, 366.4, 12.9)">m</text><g><clipPath id="clip0x7fd5d15040b0"><path d="M -0.7 6.9 L 405.1 6.9 L 405.1 11.4 L -0.7 11.4 Z M -0.7 6.9 "></path></clipPath><g clip-path="url(#clip0x7fd5d15040b0)"><path d="M 11.4 109.8 L 416.2 109.8 " fill="none" stroke="#525252" stroke-width="2.49" transform="matrix(1.00, 0.00, 0.00, -1.00, -11.1, 119.0)"></path></g></g></g></svg>