<?xml version="1.0" encoding="UTF-8" standalone="no"?><svg xmlns="http://www.w3.org/2000/svg" xmlns:xlink="http://www.w3.org/1999/xlink" clip-rule="evenodd" stroke-miterlimit="10" viewBox="0 0 314 50"><desc>SVG generated by Keynote</desc><defs></defs><g transform="matrix(1.00, 0.00, -0.00, -1.00, 0.0, 50.0)"><text xml:space="preserve" font-family="GillSans-Light,Gill Sans" font-size="50.0" fill="#525252" transform="matrix(1.00, 0.00, -0.00, -1.00, -0.1, 12.9)">s</text><text xml:space="preserve" font-family="GillSans-Light,Gill Sans" font-size="50.0" fill="#525252" transform="matrix(1.00, 0.00, -0.00, -1.00, 17.6, 12.9)">k</text><text xml:space="preserve" font-family="GillSans-Light,Gill Sans" font-size="50.0" fill="#525252" transform="matrix(1.00, 0.00, -0.00, -1.00, 38.9, 12.9)">y</text><text xml:space="preserve" font-family="GillSans-Light,Gill Sans" font-size="50.0" fill="#525252" transform="matrix(1.00, 0.00, -0.00, -1.00, 59.7, 12.9)">p</text><text xml:space="preserve" font-family="GillSans-Light,Gill Sans" font-size="50.0" fill="#525252" transform="matrix(1.00, 0.00, -0.00, -1.00, 85.2, 12.9)">e</text><text xml:space="preserve" font-family="GillSans-Light,Gill Sans" font-size="50.0" fill="#525252" transform="matrix(1.00, 0.00, -0.00, -1.00, 109.2, 12.9)">:</text><text xml:space="preserve" font-family="GillSans-Light,Gill Sans" font-size="50.0" fill="#525252" transform="matrix(1.00, 0.00, -0.00, -1.00, 114.0, 12.9)"> </text><text xml:space="preserve" font-family="GillSans-Light,Gill Sans" font-size="50.0" fill="#525252" transform="matrix(1.00, 0.00, -0.00, -1.00, 127.9, 12.9)">s</text><text xml:space="preserve" font-family="GillSans-Light,Gill Sans" font-size="50.0" fill="#525252" transform="matrix(1.00, 0.00, -0.00, -1.00, 145.6, 12.9)">e</text><text xml:space="preserve" font-family="GillSans-Light,Gill Sans" font-size="50.0" fill="#525252" transform="matrix(1.00, 0.00, -0.00, -1.00, 169.5, 12.9)">b</text><text xml:space="preserve" font-family="GillSans-Light,Gill Sans" font-size="50.0" fill="#525252" transform="matrix(1.00, 0.00, -0.00, -1.00, 195.0, 12.9)">a</text><text xml:space="preserve" font-family="GillSans-Light,Gill Sans" font-size="50.0" fill="#525252" transform="matrix(1.00, 0.00, -0.00, -1.00, 216.3, 12.9)">_</text><text xml:space="preserve" font-family="GillSans-Light,Gill Sans" font-size="50.0" fill="#525252" transform="matrix(1.00, 0.00, -0.00, -1.00, 241.3, 12.9)">r</text><text xml:space="preserve" font-family="GillSans-Light,Gill Sans" font-size="50.0" fill="#525252" transform="matrix(1.00, 0.00, -0.00, -1.00, 259.2, 12.9)">i</text><text xml:space="preserve" font-family="GillSans-Light,Gill Sans" font-size="50.0" fill="#525252" transform="matrix(1.00, 0.00, -0.00, -1.00, 268.6, 12.9)">o</text><text xml:space="preserve" font-family="GillSans-Light,Gill Sans" font-size="50.0" fill="#525252" transform="matrix(1.00, 0.00, -0.00, -1.00, 295.7, 12.9)">s</text></g></svg>