<?xml version="1.0" encoding="UTF-8" standalone="no"?><svg xmlns="http://www.w3.org/2000/svg" xmlns:xlink="http://www.w3.org/1999/xlink" clip-rule="evenodd" stroke-miterlimit="10" viewBox="0 0 543 552"><desc>SVG generated by Keynote</desc><defs></defs><g transform="matrix(1.00, 0.00, -0.00, -1.00, 0.0, 552.0)"><g><clipPath id="clip0x7fd5cdd36f30"><path d="M 2.0 550.0 L 540.0 550.0 L 540.0 2.0 L 2.0 2.0 Z M 2.0 550.1 "></path></clipPath><g clip-path="url(#clip0x7fd5cdd36f30)"><g><clipPath id="clip0x7fd5cdd3d240"><path d="M 255.2 550.0 C 233.7 550.6 207.0 548.1 204.6 544.3 C 201.0 538.4 176.0 524.3 172.7 526.3 C 170.9 527.5 169.4 526.1 169.4 523.4 C 169.4 520.7 164.8 514.5 159.1 509.7 C 153.4 504.9 149.5 500.9 150.6 500.9 C 151.6 500.9 147.8 493.3 142.0 483.9 C 133.5 470.1 131.2 462.1 129.9 441.7 C 128.7 424.0 129.2 416.4 132.0 416.4 C 134.1 416.4 136.7 419.1 137.8 422.3 C 144.5 443.0 161.9 472.5 175.2 485.7 C 189.4 500.0 219.9 518.8 225.9 517.1 C 227.4 516.6 232.3 518.4 236.8 520.9 C 241.3 523.3 254.6 526.1 266.3 527.1 C 283.1 528.4 288.0 527.8 289.5 523.8 C 290.9 520.1 295.7 519.2 307.3 520.0 C 329.5 521.6 331.5 522.0 329.8 524.7 C 326.5 530.0 291.0 545.0 273.9 548.3 C 269.0 549.3 262.4 549.8 255.2 550.0 Z M 535.4 532.5 C 533.3 534.6 514.1 513.1 514.1 508.6 C 514.1 506.8 509.1 500.7 503.1 494.9 C 497.1 489.1 488.3 479.7 483.8 474.0 C 479.2 468.3 469.3 459.7 461.8 454.8 C 454.3 449.8 444.2 443.0 439.2 439.7 C 430.5 433.7 430.0 433.8 421.5 440.5 C 416.6 444.3 413.4 448.6 414.3 450.1 C 415.2 451.6 414.2 452.7 411.9 452.5 C 409.6 452.4 399.3 456.3 389.1 461.2 C 378.8 466.1 364.2 471.2 356.4 472.4 C 343.4 474.5 341.9 474.0 337.3 465.0 C 328.7 448.2 324.8 429.9 329.8 429.9 C 332.2 429.9 335.8 427.9 337.9 425.5 C 343.1 419.2 335.3 395.6 327.4 393.5 C 322.7 392.3 322.2 390.9 325.2 387.3 C 328.1 383.8 327.9 382.4 324.4 381.4 C 321.9 380.6 313.0 378.0 304.6 375.6 C 284.6 369.7 283.4 369.8 282.3 377.1 C 281.8 380.5 278.9 386.1 275.8 389.6 C 272.6 393.1 270.8 398.0 271.8 400.6 C 273.0 403.9 271.3 405.2 266.3 404.6 C 256.0 403.5 256.0 403.5 260.6 398.0 C 262.8 395.2 265.4 386.1 266.3 377.7 C 267.6 365.0 266.8 362.0 261.7 360.2 C 258.3 359.0 252.2 354.9 248.1 351.2 C 241.7 345.4 240.3 345.2 238.6 349.7 C 237.5 352.6 234.0 354.2 230.7 353.3 C 227.4 352.4 221.3 354.7 217.0 358.2 C 209.5 364.2 209.4 364.9 214.4 374.7 L 219.7 385.0 L 199.8 394.5 C 173.5 407.0 166.5 404.3 156.8 377.1 C 148.7 354.5 142.3 331.0 141.0 319.6 C 140.5 314.9 134.5 307.7 126.1 301.6 C 118.3 295.9 104.0 282.6 94.3 272.0 C 64.0 238.9 32.2 208.8 22.1 203.6 C -4.8 189.9 -4.8 191.3 23.0 162.1 C 36.8 147.6 47.2 134.3 46.0 132.4 C 44.9 130.6 45.6 129.5 47.6 130.0 C 49.6 130.5 56.4 122.7 62.7 112.7 L 74.1 94.4 L 78.6 102.6 C 91.0 124.8 123.2 166.2 126.4 164.2 C 128.4 162.9 128.9 163.6 127.6 165.7 C 125.5 169.2 154.0 217.1 158.3 217.1 C 159.3 217.1 171.0 206.6 184.2 193.8 C 197.5 180.9 215.1 164.4 223.4 156.9 L 238.6 143.4 L 228.5 122.2 C 222.9 110.5 214.3 95.3 209.1 88.2 C 204.0 81.1 199.9 74.1 199.9 72.8 C 199.9 71.4 192.7 63.1 183.9 54.2 L 168.0 38.0 L 183.1 38.0 C 208.2 38.0 271.6 16.5 270.4 8.4 C 270.2 7.0 270.2 4.9 270.4 3.6 C 270.6 2.3 275.0 1.6 280.1 2.0 C 288.3 2.6 290.2 5.2 296.8 24.6 C 300.9 36.7 304.3 49.3 304.4 52.8 C 304.5 56.3 310.5 65.1 317.8 72.3 C 330.7 85.2 331.2 85.4 335.8 78.8 C 340.5 72.1 340.7 72.1 349.9 81.6 C 355.7 87.7 361.5 90.7 365.4 89.7 C 369.2 88.7 372.9 90.5 375.0 94.4 C 377.2 98.5 381.7 100.6 387.9 100.3 C 394.9 100.0 398.0 101.7 399.5 107.0 C 400.6 110.9 403.5 113.6 405.8 113.1 C 408.2 112.6 412.4 115.2 415.0 119.0 C 417.7 122.8 421.3 125.2 423.0 124.2 C 424.5 123.3 427.1 125.2 429.1 128.5 C 427.9 127.6 426.7 127.3 425.6 128.0 C 423.2 129.5 420.7 130.4 418.4 130.8 C 418.2 130.8 418.2 130.8 418.0 130.8 C 414.2 131.0 412.3 130.4 410.3 129.8 C 406.9 128.2 404.1 125.4 402.5 120.9 C 400.8 116.2 399.8 113.8 398.7 113.2 C 398.6 113.2 398.5 113.2 398.5 113.2 C 397.4 112.8 396.3 114.0 394.3 116.6 C 391.7 120.1 390.2 120.5 388.4 119.5 C 387.7 118.8 387.0 118.3 385.8 116.1 C 383.7 112.2 379.3 109.0 375.8 109.0 C 372.0 109.0 364.2 102.0 357.0 92.1 C 345.1 76.0 340.1 74.3 338.8 85.1 C 338.8 85.3 338.7 85.4 338.7 85.5 C 338.5 87.0 338.2 87.9 338.2 89.8 C 338.0 99.5 337.6 99.9 333.9 94.1 C 324.2 78.4 312.4 67.3 309.9 71.5 C 307.5 75.3 312.2 116.0 317.9 141.1 C 320.9 154.5 326.3 154.0 327.6 140.2 C 328.2 134.2 329.2 129.3 329.8 129.3 C 337.0 129.3 381.5 145.7 395.8 153.6 C 414.8 164.1 441.8 184.3 448.6 193.1 C 450.8 195.9 452.2 195.7 453.8 194.0 C 454.4 193.5 455.1 192.6 455.8 191.4 C 456.0 191.1 456.1 191.1 456.3 190.7 C 456.4 190.6 456.4 190.5 456.4 190.4 C 456.5 190.2 456.6 190.1 456.7 189.9 C 458.9 185.9 458.6 183.2 457.1 180.2 C 456.4 178.5 456.0 176.8 454.4 174.4 C 450.7 168.7 448.9 160.4 449.5 151.1 C 450.4 135.5 445.5 128.8 440.2 138.4 C 439.2 140.2 438.5 140.4 437.8 140.8 C 437.0 140.7 436.0 139.9 435.2 138.9 C 434.6 137.7 434.1 137.3 433.2 135.0 C 432.5 133.0 431.7 132.1 430.9 130.9 C 435.0 137.1 438.5 134.4 441.0 122.1 C 443.5 109.5 446.3 110.9 449.7 126.5 C 451.0 132.6 453.9 137.3 456.1 136.9 C 458.3 136.4 460.0 138.9 460.0 142.6 C 460.0 146.8 464.3 151.2 471.8 154.8 C 479.4 158.4 483.7 162.9 483.7 167.0 C 483.7 170.7 482.2 172.7 480.5 171.6 C 478.8 170.5 476.3 171.3 475.1 173.3 C 473.7 175.6 471.2 174.8 468.4 170.8 C 464.1 165.1 463.8 165.0 461.6 170.6 C 460.3 173.9 461.8 182.8 464.9 190.4 C 468.9 200.6 469.4 205.5 466.7 208.8 C 463.9 212.1 464.7 216.6 469.6 226.3 C 481.0 248.6 488.1 278.5 488.7 307.3 C 489.3 332.1 490.5 336.6 500.3 352.0 C 506.4 361.5 512.9 368.1 514.9 366.9 C 516.9 365.7 517.5 366.3 516.2 368.4 C 514.9 370.4 517.6 381.7 522.1 393.4 C 534.2 424.9 535.3 427.8 536.7 433.3 C 538.9 442.1 541.3 492.7 539.2 487.4 C 534.5 475.2 533.4 471.8 532.4 465.0 C 531.2 455.5 514.9 423.3 507.1 414.7 C 503.7 411.0 500.9 406.9 500.9 405.5 C 500.6 400.2 490.2 382.6 487.4 382.6 C 485.8 382.6 483.6 379.4 482.5 375.4 C 480.9 369.2 479.9 368.7 475.4 372.4 C 472.5 374.8 470.1 378.6 470.1 380.9 C 470.1 383.1 465.4 391.5 459.7 399.4 C 451.1 411.3 450.0 414.6 453.8 417.9 C 476.9 438.6 502.9 459.8 505.6 460.3 C 507.5 460.6 508.6 462.9 508.1 465.4 C 507.5 468.0 510.2 471.8 514.1 473.9 C 517.9 475.9 520.1 479.1 518.9 480.9 C 517.8 482.8 518.5 486.3 520.5 488.8 C 525.5 494.7 537.6 530.3 535.4 532.5 Z M 418.9 268.1 C 420.2 268.2 421.0 268.0 421.4 267.5 C 424.2 262.9 408.9 237.8 395.3 224.8 C 389.1 218.8 377.5 211.7 369.5 208.9 C 355.4 203.9 354.9 204.0 351.9 211.3 C 349.3 217.7 351.3 221.0 365.3 234.0 C 382.4 249.8 410.3 267.1 418.9 268.1 Z M 515.7 229.1 C 514.0 228.0 513.1 223.7 511.7 215.6 C 509.5 201.9 513.6 200.6 524.7 211.2 C 530.7 216.9 530.7 217.4 523.9 224.2 C 519.7 228.4 517.3 230.3 515.7 229.1 Z M 498.8 204.0 C 497.3 203.5 494.8 201.1 490.3 196.2 C 485.1 190.5 481.5 184.0 482.4 181.7 C 484.8 175.4 493.9 176.9 502.7 185.1 C 510.8 192.6 513.7 199.1 507.1 195.0 C 505.1 193.8 502.7 195.9 501.7 199.7 C 500.9 202.9 500.3 204.5 498.8 204.0 Z M 462.5 202.2 C 463.5 202.0 464.3 201.4 464.9 200.5 C 466.0 198.8 465.5 196.4 463.7 195.3 C 461.9 194.3 459.6 194.7 458.5 196.5 C 457.4 198.3 457.9 200.6 459.7 201.7 C 460.6 202.2 461.6 202.4 462.5 202.2 Z M 166.2 156.3 C 164.2 156.3 161.1 152.5 159.3 147.8 C 157.1 142.0 153.5 139.4 147.9 139.4 C 143.4 139.4 138.8 137.0 137.7 134.0 C 134.3 125.3 143.2 110.8 152.6 109.5 C 165.3 107.8 167.3 104.0 161.6 91.6 C 158.8 85.3 155.4 76.8 154.2 72.7 C 150.9 60.9 160.5 66.5 165.2 79.0 C 167.4 84.7 170.6 88.4 172.4 87.2 C 174.2 86.1 176.2 89.4 176.8 94.5 C 177.6 100.8 179.6 103.5 183.0 102.7 C 185.8 102.1 186.9 102.7 185.5 104.1 C 184.1 105.5 184.4 108.3 186.0 110.4 C 197.0 123.8 183.0 156.3 166.2 156.3 Z M 199.9 134.3 C 198.0 133.2 196.5 130.8 196.5 129.0 C 196.5 127.3 198.0 125.9 199.9 125.9 C 201.7 125.9 203.2 128.3 203.2 131.2 C 203.2 134.0 201.7 135.5 199.9 134.3 Z M 363.0 128.0 C 362.4 127.7 362.0 127.1 362.0 126.1 C 362.0 124.1 363.6 122.5 365.4 122.5 C 366.4 122.5 366.6 122.9 367.2 123.2 C 367.5 124.0 367.5 124.6 367.6 125.1 C 367.0 125.9 366.6 126.8 365.4 127.6 C 364.5 128.1 363.6 128.3 363.0 128.0 Z M 358.1 125.9 C 357.2 125.9 352.9 122.1 348.5 117.4 C 344.2 112.8 341.4 109.0 342.3 109.0 C 343.1 109.0 347.1 112.6 351.1 116.7 C 351.5 117.1 351.9 117.8 352.4 118.2 C 356.1 122.3 359.0 125.9 358.1 125.9 Z M 122.3 118.0 C 120.3 118.4 118.1 118.2 115.8 117.5 C 108.0 115.1 103.7 105.8 108.2 101.3 C 110.2 99.3 112.8 100.9 115.3 105.5 C 120.9 116.1 130.3 108.0 127.6 94.8 C 126.6 89.6 126.6 83.1 127.6 80.4 C 129.2 76.3 131.7 77.1 140.8 84.4 C 147.0 89.3 151.3 94.7 150.3 96.3 C 149.3 97.9 145.8 96.9 142.6 94.0 C 135.5 87.6 132.3 90.1 132.3 102.3 C 132.3 110.7 128.1 116.7 122.3 118.0 Z M 396.3 75.8 C 394.3 76.8 394.3 74.4 395.2 66.6 C 395.9 60.2 396.9 54.9 397.3 54.9 C 397.7 54.9 401.7 58.9 406.2 63.8 C 411.0 69.0 412.3 72.1 409.3 71.1 C 406.5 70.1 402.0 71.3 399.1 73.8 C 397.9 74.8 397.0 75.5 396.3 75.8 Z M 396.3 75.8 "></path></clipPath><g clip-path="url(#clip0x7fd5cdd3d240)"><image xlink:href="../../670AF0A5-B06C-45B2-A649-BC83FE98871A/assets/E9CE1D2A9EAA0B72B2B2CA44794148CF.jpeg" width="180.00" height="180.00" transform="matrix(3.38, 0.00, -0.00, -3.38, -37.0, 585.0)"></image></g></g></g></g></g></svg>