<?xml version="1.0" encoding="UTF-8" standalone="no"?><svg xmlns="http://www.w3.org/2000/svg" xmlns:xlink="http://www.w3.org/1999/xlink" clip-rule="evenodd" stroke-miterlimit="10" viewBox="0 0 213 228"><desc>SVG generated by Keynote</desc><defs></defs><g transform="matrix(1.00, 0.00, -0.00, -1.00, 0.0, 228.0)"><image xlink:href="../../92BFFA81-991A-4FD2-B648-DDE376ABC939/assets/9F11EF69BCDB44634A8AA95F9A99624E.png" width="209.00" height="213.00" transform="matrix(1.00, 0.00, -0.00, -1.00, 1.8, 214.7)" opacity="0.60"></image><g><clipPath id="clip0x7fd5cfff24a0"><path d="M 12.0 211.0 L 201.0 211.0 L 201.0 18.0 L 12.0 18.0 Z M 12.1 210.7 "></path></clipPath><g clip-path="url(#clip0x7fd5cfff24a0)"><g><clipPath id="clip0x7fd5cfff2ad0"><path d="M 101.2 210.6 C 93.6 210.9 84.2 210.0 83.4 208.6 C 82.1 206.6 73.3 201.6 72.1 202.3 C 71.5 202.7 71.0 202.2 71.0 201.3 C 71.0 200.3 69.4 198.1 67.3 196.4 C 65.3 194.8 64.0 193.4 64.3 193.4 C 64.7 193.4 63.4 190.7 61.3 187.4 C 58.3 182.5 57.5 179.7 57.1 172.5 C 56.6 166.3 56.8 163.6 57.8 163.6 C 58.5 163.6 59.5 164.6 59.8 165.7 C 62.2 173.0 68.3 183.4 73.0 188.0 C 78.0 193.0 88.7 199.7 90.9 199.0 C 91.4 198.9 93.1 199.5 94.7 200.4 C 96.3 201.3 100.9 202.2 105.1 202.6 C 111.0 203.1 112.7 202.8 113.2 201.4 C 113.7 200.1 115.4 199.8 119.5 200.1 C 127.3 200.6 128.0 200.8 127.4 201.7 C 126.3 203.6 113.8 208.9 107.7 210.0 C 106.0 210.4 103.7 210.6 101.2 210.6 Z M 199.8 204.5 C 199.0 205.2 192.3 197.7 192.3 196.1 C 192.3 195.4 190.5 193.3 188.4 191.2 C 186.3 189.2 183.2 185.9 181.6 183.9 C 180.0 181.9 176.5 178.9 173.9 177.1 C 171.2 175.4 167.7 173.0 165.9 171.8 C 162.9 169.7 162.7 169.7 159.7 172.1 C 158.0 173.4 156.8 175.0 157.2 175.5 C 157.5 176.0 157.1 176.4 156.3 176.3 C 155.5 176.3 151.9 177.7 148.3 179.4 C 144.7 181.1 139.5 182.9 136.8 183.3 C 132.2 184.1 131.7 183.9 130.1 180.7 C 127.0 174.8 125.7 168.4 127.4 168.4 C 128.3 168.4 129.5 167.7 130.3 166.8 C 132.1 164.6 129.4 156.3 126.6 155.6 C 124.9 155.1 124.7 154.6 125.8 153.4 C 126.8 152.1 126.8 151.7 125.5 151.3 C 124.6 151.0 121.5 150.1 118.5 149.3 C 111.5 147.2 111.1 147.2 110.7 149.8 C 110.5 151.0 109.5 153.0 108.4 154.2 C 107.3 155.4 106.6 157.1 107.0 158.1 C 107.4 159.2 106.8 159.7 105.1 159.5 C 101.4 159.1 101.4 159.1 103.1 157.1 C 103.9 156.2 104.8 153.0 105.1 150.0 C 105.5 145.5 105.2 144.5 103.5 143.8 C 102.3 143.4 100.1 142.0 98.7 140.7 C 96.4 138.6 95.9 138.6 95.3 140.2 C 94.9 141.2 93.7 141.7 92.5 141.4 C 91.4 141.1 89.2 141.9 87.7 143.1 C 85.1 145.3 85.0 145.5 86.8 149.0 L 88.7 152.6 L 81.7 155.9 C 72.4 160.3 70.0 159.3 66.5 149.8 C 63.7 141.8 61.4 133.6 61.0 129.6 C 60.8 127.9 58.7 125.4 55.7 123.2 C 53.0 121.2 48.0 116.6 44.5 112.8 C 33.9 101.1 22.7 90.5 19.1 88.7 C 9.6 83.9 9.6 84.4 19.4 74.1 C 24.3 69.0 28.0 64.3 27.5 63.7 C 27.1 63.0 27.4 62.6 28.1 62.8 C 28.8 63.0 31.2 60.3 33.4 56.7 L 37.4 50.3 L 39.0 53.2 C 43.4 61.0 54.7 75.6 55.8 74.9 C 56.5 74.4 56.7 74.6 56.3 75.4 C 55.5 76.6 65.6 93.5 67.0 93.5 C 67.4 93.5 71.5 89.8 76.2 85.3 C 80.8 80.8 87.0 74.9 90.0 72.3 L 95.3 67.5 L 91.8 60.1 C 89.8 56.0 86.8 50.6 85.0 48.1 C 83.2 45.6 81.7 43.2 81.7 42.7 C 81.7 42.2 79.2 39.3 76.1 36.1 L 70.5 30.0 L 75.8 30.0 C 84.6 30.0 106.9 22.9 106.5 20.0 C 106.4 19.5 106.4 18.8 106.5 18.3 C 106.6 17.9 108.1 17.7 109.9 17.8 C 112.8 18.0 113.5 18.9 115.8 25.7 C 117.2 30.0 118.4 34.4 118.5 35.7 C 118.5 36.9 120.6 40.0 123.2 42.5 C 127.7 47.1 127.9 47.1 129.5 44.8 C 131.2 42.4 131.3 42.4 134.5 45.8 C 136.5 47.9 138.6 49.0 140.0 48.6 C 141.3 48.3 142.6 48.9 143.3 50.3 C 144.1 51.8 145.7 52.5 147.9 52.4 C 150.3 52.3 151.4 52.9 152.0 54.7 C 152.3 56.1 153.3 57.1 154.2 56.9 C 155.0 56.7 156.5 57.6 157.4 59.0 C 158.4 60.3 159.6 61.1 160.2 60.8 C 160.7 60.5 161.7 61.2 162.4 62.3 C 161.9 62.0 161.5 61.9 161.1 62.1 C 160.3 62.7 159.4 63.0 158.6 63.1 C 158.5 63.1 158.5 63.1 158.5 63.1 C 157.1 63.2 156.5 63.0 155.7 62.8 C 154.6 62.2 153.6 61.2 153.0 59.6 C 152.4 58.0 152.0 57.1 151.7 56.9 C 151.6 56.9 151.6 56.9 151.6 56.9 C 151.2 56.8 150.8 57.2 150.1 58.1 C 149.2 59.4 148.7 59.5 148.1 59.1 C 147.8 58.9 147.6 58.7 147.1 57.9 C 146.4 56.6 144.8 55.4 143.6 55.4 C 142.3 55.4 139.5 53.0 137.0 49.5 C 132.8 43.8 131.1 43.2 130.6 47.0 C 130.6 47.1 130.6 47.1 130.6 47.2 C 130.5 47.7 130.4 48.0 130.4 48.7 C 130.3 52.1 130.2 52.2 128.9 50.2 C 125.4 44.7 121.3 40.8 120.4 42.2 C 119.6 43.6 121.2 57.9 123.2 66.7 C 124.3 71.4 126.2 71.3 126.6 66.4 C 126.9 64.3 127.2 62.6 127.4 62.6 C 129.9 62.6 145.6 68.4 150.7 71.2 C 157.3 74.8 166.8 81.9 169.2 85.0 C 170.0 86.0 170.5 86.0 171.1 85.3 C 171.3 85.2 171.5 84.9 171.8 84.5 C 171.8 84.3 171.9 84.3 171.9 84.2 C 172.0 84.1 172.0 84.1 172.0 84.1 C 172.0 84.0 172.0 84.0 172.1 83.9 C 172.8 82.5 172.8 81.5 172.2 80.5 C 172.0 79.9 171.8 79.3 171.3 78.5 C 170.0 76.5 169.3 73.5 169.5 70.3 C 169.9 64.7 168.2 62.4 166.3 65.8 C 165.9 66.4 165.7 66.5 165.4 66.6 C 165.1 66.6 164.8 66.3 164.5 65.9 C 164.3 65.5 164.1 65.4 163.8 64.6 C 163.6 63.9 163.3 63.6 163.0 63.2 C 164.5 65.3 165.7 64.4 166.6 60.0 C 167.4 55.6 168.4 56.1 169.6 61.6 C 170.1 63.8 171.1 65.4 171.9 65.2 C 172.6 65.1 173.2 66.0 173.2 67.2 C 173.2 68.7 174.7 70.3 177.4 71.6 C 180.1 72.8 181.6 74.4 181.6 75.9 C 181.6 77.1 181.1 77.8 180.5 77.5 C 179.8 77.1 179.0 77.4 178.6 78.1 C 178.1 78.9 177.2 78.6 176.2 77.2 C 174.7 75.2 174.6 75.2 173.8 77.1 C 173.4 78.3 173.9 81.4 175.0 84.1 C 176.4 87.7 176.5 89.4 175.6 90.5 C 174.6 91.7 174.9 93.3 176.6 96.7 C 180.6 104.6 183.1 115.1 183.4 125.2 C 183.6 134.0 184.0 135.6 187.4 141.0 C 189.6 144.3 191.9 146.6 192.6 146.2 C 193.3 145.8 193.5 146.0 193.0 146.7 C 192.6 147.4 193.5 151.4 195.1 155.5 C 199.3 166.6 199.7 167.6 200.2 169.6 C 201.0 172.7 201.8 190.5 201.1 188.6 C 199.4 184.3 199.1 183.1 198.7 180.7 C 198.3 177.4 192.6 166.0 189.8 163.0 C 188.6 161.7 187.7 160.3 187.6 159.8 C 187.5 157.9 183.9 151.7 182.9 151.7 C 182.3 151.7 181.5 150.6 181.2 149.2 C 180.6 147.0 180.2 146.8 178.7 148.1 C 177.7 149.0 176.8 150.3 176.8 151.1 C 176.8 151.9 175.2 154.9 173.1 157.7 C 170.1 161.8 169.7 163.0 171.1 164.2 C 179.2 171.4 188.3 178.9 189.3 179.1 C 190.0 179.2 190.3 180.0 190.2 180.9 C 190.0 181.8 190.9 183.1 192.3 183.8 C 193.6 184.6 194.4 185.7 194.0 186.3 C 193.6 187.0 193.8 188.2 194.5 189.1 C 196.3 191.2 200.5 203.7 199.8 204.5 Z M 158.8 111.4 C 159.2 111.5 159.5 111.4 159.6 111.2 C 160.6 109.6 155.2 100.8 150.5 96.2 C 148.3 94.1 144.2 91.6 141.4 90.6 C 136.4 88.8 136.2 88.9 135.2 91.4 C 134.3 93.7 135.0 94.9 139.9 99.4 C 145.9 105.0 155.8 111.1 158.8 111.4 Z M 192.8 97.7 C 192.2 97.3 191.9 95.8 191.5 93.0 C 190.7 88.1 192.1 87.7 196.0 91.4 C 198.1 93.4 198.1 93.6 195.7 96.0 C 194.2 97.5 193.4 98.1 192.8 97.7 Z M 186.9 88.9 C 186.4 88.7 185.5 87.8 183.9 86.1 C 182.1 84.1 180.8 81.8 181.1 81.0 C 182.0 78.8 185.2 79.3 188.3 82.2 C 191.1 84.9 192.1 87.1 189.8 85.7 C 189.1 85.3 188.3 86.0 187.9 87.4 C 187.6 88.5 187.4 89.0 186.9 88.9 Z M 174.1 88.2 C 174.5 88.2 174.8 88.0 175.0 87.6 C 175.3 87.0 175.2 86.2 174.5 85.8 C 173.9 85.4 173.1 85.6 172.7 86.2 C 172.3 86.9 172.5 87.7 173.1 88.1 C 173.4 88.2 173.8 88.3 174.1 88.2 Z M 69.8 72.1 C 69.1 72.1 68.0 70.7 67.4 69.1 C 66.6 67.1 65.4 66.1 63.4 66.1 C 61.8 66.1 60.2 65.3 59.8 64.2 C 58.6 61.2 61.7 56.1 65.0 55.6 C 69.5 55.0 70.2 53.7 68.2 49.3 C 67.2 47.1 66.1 44.1 65.6 42.6 C 64.5 38.5 67.8 40.5 69.5 44.9 C 70.3 46.9 71.4 48.2 72.0 47.8 C 72.7 47.4 73.4 48.5 73.6 50.3 C 73.8 52.5 74.6 53.5 75.7 53.2 C 76.7 53.0 77.1 53.2 76.6 53.7 C 76.1 54.2 76.2 55.2 76.8 55.9 C 80.7 60.7 75.8 72.1 69.8 72.1 Z M 81.7 64.4 C 81.0 63.9 80.5 63.1 80.5 62.5 C 80.5 61.9 81.0 61.4 81.7 61.4 C 82.3 61.4 82.9 62.2 82.9 63.2 C 82.9 64.3 82.3 64.8 81.7 64.4 Z M 139.1 62.1 C 138.9 62.0 138.8 61.8 138.8 61.5 C 138.8 60.8 139.3 60.2 140.0 60.2 C 140.3 60.2 140.4 60.3 140.6 60.4 C 140.7 60.7 140.7 60.9 140.7 61.1 C 140.5 61.4 140.4 61.7 140.0 62.0 C 139.6 62.2 139.3 62.2 139.1 62.1 Z M 137.4 61.4 C 137.1 61.4 135.5 60.0 134.0 58.4 C 132.5 56.8 131.5 55.4 131.8 55.4 C 132.1 55.4 133.5 56.7 134.9 58.1 C 135.1 58.3 135.2 58.5 135.4 58.7 C 136.7 60.1 137.7 61.4 137.4 61.4 Z M 54.4 58.6 C 53.7 58.7 52.9 58.7 52.1 58.4 C 49.4 57.6 47.8 54.3 49.4 52.7 C 50.1 52.0 51.1 52.6 51.9 54.2 C 53.9 57.9 57.2 55.1 56.3 50.5 C 55.9 48.6 55.9 46.3 56.3 45.4 C 56.8 43.9 57.7 44.2 60.9 46.8 C 63.1 48.5 64.6 50.4 64.3 51.0 C 63.9 51.5 62.7 51.2 61.5 50.2 C 59.0 47.9 57.9 48.8 57.9 53.1 C 57.9 56.0 56.4 58.1 54.4 58.6 Z M 150.8 43.8 C 150.1 44.1 150.1 43.3 150.4 40.5 C 150.7 38.3 151.0 36.4 151.2 36.4 C 151.3 36.4 152.7 37.8 154.3 39.5 C 156.0 41.4 156.5 42.4 155.4 42.1 C 154.4 41.8 152.8 42.2 151.8 43.1 C 151.4 43.4 151.1 43.7 150.8 43.8 Z M 150.8 43.8 "></path></clipPath><g clip-path="url(#clip0x7fd5cfff2ad0)"><image xlink:href="../../670AF0A5-B06C-45B2-A649-BC83FE98871A/assets/E9CE1D2A9EAA0B72B2B2CA44794148CF.jpeg" width="180.00" height="180.00" transform="matrix(1.19, 0.00, -0.00, -1.19, -2.0, 223.0)"></image></g></g></g></g></g></svg>