<?xml version="1.0" encoding="UTF-8" standalone="no"?><svg xmlns="http://www.w3.org/2000/svg" xmlns:xlink="http://www.w3.org/1999/xlink" clip-rule="evenodd" stroke-miterlimit="10" viewBox="0 0 305 50"><desc>SVG generated by Keynote</desc><defs></defs><g transform="matrix(1.00, 0.00, -0.00, -1.00, 0.0, 50.0)"><text xml:space="preserve" font-family="GillSans-Light,Gill Sans" font-size="51.0" fill="#525252" transform="matrix(1.00, 0.00, -0.00, -1.00, -0.3, 2.5)">C</text><text xml:space="preserve" font-family="GillSans-Light,Gill Sans" font-size="51.0" fill="#525252" transform="matrix(1.00, 0.00, -0.00, -1.00, 36.5, 2.5)">A</text><text xml:space="preserve" font-family="GillSans-Light,Gill Sans" font-size="51.0" fill="#525252" transform="matrix(1.00, 0.00, -0.00, -1.00, 70.5, 2.5)">R</text><text xml:space="preserve" font-family="GillSans-Light,Gill Sans" font-size="51.0" fill="#525252" transform="matrix(1.00, 0.00, -0.00, -1.00, 99.7, 2.5)">P</text><text xml:space="preserve" font-family="GillSans-Light,Gill Sans" font-size="51.0" fill="#525252" transform="matrix(1.00, 0.00, -0.00, -1.00, 125.7, 2.5)">I</text><text xml:space="preserve" font-family="GillSans-Light,Gill Sans" font-size="51.0" fill="#525252" transform="matrix(1.00, 0.00, -0.00, -1.00, 136.3, 2.5)">N</text><text xml:space="preserve" font-family="GillSans-Light,Gill Sans" font-size="51.0" fill="#525252" transform="matrix(1.00, 0.00, -0.00, -1.00, 175.6, 2.5)">T</text><text xml:space="preserve" font-family="GillSans-Light,Gill Sans" font-size="51.0" fill="#525252" transform="matrix(1.00, 0.00, -0.00, -1.00, 204.9, 2.5)">E</text><text xml:space="preserve" font-family="GillSans-Light,Gill Sans" font-size="51.0" fill="#525252" transform="matrix(1.00, 0.00, -0.00, -1.00, 229.9, 2.5)">R</text><text xml:space="preserve" font-family="GillSans-Light,Gill Sans" font-size="51.0" fill="#525252" transform="matrix(1.00, 0.00, -0.00, -1.00, 259.1, 2.5)">Ã</text><text xml:space="preserve" font-family="GillSans-Light,Gill Sans" font-size="51.0" fill="#525252" transform="matrix(1.00, 0.00, -0.00, -1.00, 269.8, 2.5)">A</text></g></svg>