<?xml version="1.0" encoding="UTF-8" standalone="no"?><svg xmlns="http://www.w3.org/2000/svg" xmlns:xlink="http://www.w3.org/1999/xlink" clip-rule="evenodd" stroke-miterlimit="10" viewBox="0 0 279 39"><desc>SVG generated by Keynote</desc><defs></defs><g transform="matrix(1.00, 0.00, -0.00, -1.00, 0.0, 39.0)"><text xml:space="preserve" font-family="GillSans-Light,Gill Sans" font-size="50.0" fill="#525252" transform="matrix(1.00, 0.00, -0.00, -1.00, 0.2, 1.9)">S</text><text xml:space="preserve" font-family="GillSans-Light,Gill Sans" font-size="50.0" fill="#525252" transform="matrix(1.00, 0.00, -0.00, -1.00, 23.6, 1.9)">e</text><text xml:space="preserve" font-family="GillSans-Light,Gill Sans" font-size="50.0" fill="#525252" transform="matrix(1.00, 0.00, -0.00, -1.00, 47.6, 1.9)">b</text><text xml:space="preserve" font-family="GillSans-Light,Gill Sans" font-size="50.0" fill="#525252" transform="matrix(1.00, 0.00, -0.00, -1.00, 73.1, 1.9)">a</text><text xml:space="preserve" font-family="GillSans-Light,Gill Sans" font-size="50.0" fill="#525252" transform="matrix(1.00, 0.00, -0.00, -1.00, 94.4, 1.9)">s</text><text xml:space="preserve" font-family="GillSans-Light,Gill Sans" font-size="50.0" fill="#525252" transform="matrix(1.00, 0.00, -0.00, -1.00, 112.1, 1.9)">t</text><text xml:space="preserve" font-family="GillSans-Light,Gill Sans" font-size="50.0" fill="#525252" transform="matrix(1.00, 0.00, -0.00, -1.00, 127.2, 1.9)">i</text><text xml:space="preserve" font-family="GillSans-Light,Gill Sans" font-size="50.0" fill="#525252" transform="matrix(1.00, 0.00, -0.00, -1.00, 136.6, 1.9)">á</text><text xml:space="preserve" font-family="GillSans-Light,Gill Sans" font-size="50.0" fill="#525252" transform="matrix(1.00, 0.00, -0.00, -1.00, 157.9, 1.9)">n</text><text xml:space="preserve" font-family="GillSans-Light,Gill Sans" font-size="50.0" fill="#525252" transform="matrix(1.00, 0.00, -0.00, -1.00, 182.4, 1.9)"> </text><text xml:space="preserve" font-family="GillSans-Light,Gill Sans" font-size="50.0" fill="#525252" transform="matrix(1.00, 0.00, -0.00, -1.00, 196.3, 1.9)">R</text><text xml:space="preserve" font-family="GillSans-Light,Gill Sans" font-size="50.0" fill="#525252" transform="matrix(1.00, 0.00, -0.00, -1.00, 225.0, 1.9)">í</text><text xml:space="preserve" font-family="GillSans-Light,Gill Sans" font-size="50.0" fill="#525252" transform="matrix(1.00, 0.00, -0.00, -1.00, 234.4, 1.9)">o</text><text xml:space="preserve" font-family="GillSans-Light,Gill Sans" font-size="50.0" fill="#525252" transform="matrix(1.00, 0.00, -0.00, -1.00, 261.5, 1.9)">s</text></g></svg>