<?xml version="1.0" encoding="UTF-8" standalone="no"?><svg xmlns="http://www.w3.org/2000/svg" xmlns:xlink="http://www.w3.org/1999/xlink" clip-rule="evenodd" stroke-miterlimit="10" viewBox="0 0 353 39"><desc>SVG generated by Keynote</desc><defs></defs><g transform="matrix(1.00, 0.00, -0.00, -1.00, 0.0, 39.0)"><text xml:space="preserve" font-family="GillSans-Light,Gill Sans" font-size="50.0" fill="#525252" transform="matrix(1.00, 0.00, -0.00, -1.00, 0.3, 1.9)">0</text><text xml:space="preserve" font-family="GillSans-Light,Gill Sans" font-size="50.0" fill="#525252" transform="matrix(1.00, 0.00, -0.00, -1.00, 25.3, 1.9)">2</text><text xml:space="preserve" font-family="GillSans-Light,Gill Sans" font-size="50.0" fill="#525252" transform="matrix(1.00, 0.00, -0.00, -1.00, 50.3, 1.9)">9</text><text xml:space="preserve" font-family="GillSans-Light,Gill Sans" font-size="50.0" fill="#525252" transform="matrix(1.00, 0.00, -0.00, -1.00, 75.3, 1.9)">7</text><text xml:space="preserve" font-family="GillSans-Light,Gill Sans" font-size="50.0" fill="#525252" transform="matrix(1.00, 0.00, -0.00, -1.00, 100.3, 1.9)">2</text><text xml:space="preserve" font-family="GillSans-Light,Gill Sans" font-size="50.0" fill="#525252" transform="matrix(1.00, 0.00, -0.00, -1.00, 125.3, 1.9)"> </text><text xml:space="preserve" font-family="GillSans-Light,Gill Sans" font-size="50.0" fill="#525252" transform="matrix(1.00, 0.00, -0.00, -1.00, 139.2, 1.9)">1</text><text xml:space="preserve" font-family="GillSans-Light,Gill Sans" font-size="50.0" fill="#525252" transform="matrix(1.00, 0.00, -0.00, -1.00, 164.2, 1.9)">5</text><text xml:space="preserve" font-family="GillSans-Light,Gill Sans" font-size="50.0" fill="#525252" transform="matrix(1.00, 0.00, -0.00, -1.00, 189.2, 1.9)"> </text><text xml:space="preserve" font-family="GillSans-Light,Gill Sans" font-size="50.0" fill="#525252" transform="matrix(1.00, 0.00, -0.00, -1.00, 203.1, 1.9)">4</text><text xml:space="preserve" font-family="GillSans-Light,Gill Sans" font-size="50.0" fill="#525252" transform="matrix(1.00, 0.00, -0.00, -1.00, 228.1, 1.9)">3</text><text xml:space="preserve" font-family="GillSans-Light,Gill Sans" font-size="50.0" fill="#525252" transform="matrix(1.00, 0.00, -0.00, -1.00, 253.1, 1.9)">1</text><text xml:space="preserve" font-family="GillSans-Light,Gill Sans" font-size="50.0" fill="#525252" transform="matrix(1.00, 0.00, -0.00, -1.00, 278.1, 1.9)">5</text><text xml:space="preserve" font-family="GillSans-Light,Gill Sans" font-size="50.0" fill="#525252" transform="matrix(1.00, 0.00, -0.00, -1.00, 303.1, 1.9)">3</text><text xml:space="preserve" font-family="GillSans-Light,Gill Sans" font-size="50.0" fill="#525252" transform="matrix(1.00, 0.00, -0.00, -1.00, 328.1, 1.9)">0</text></g></svg>