<?xml version="1.0" encoding="UTF-8" standalone="no"?><svg xmlns="http://www.w3.org/2000/svg" xmlns:xlink="http://www.w3.org/1999/xlink" clip-rule="evenodd" stroke-miterlimit="10" viewBox="0 0 34 32"><desc>SVG generated by Keynote</desc><defs></defs><g transform="matrix(1.00, 0.00, -0.00, -1.00, 0.0, 32.0)"><g><clipPath id="clip0x7fd5cce78ca0"><path d="M 0.6 1.0 L 33.5 1.0 L 33.5 31.7 L 0.6 31.7 Z M 0.6 1.0 "></path></clipPath><g clip-path="url(#clip0x7fd5cce78ca0)"><path d="M 33.1 12.0 C 33.4 11.5 33.5 11.1 33.5 10.5 C 33.5 9.6 33.0 8.7 31.9 7.8 C 30.8 7.0 29.6 6.6 28.2 6.6 C 26.4 6.6 24.3 7.9 21.9 10.5 C 21.9 10.5 21.9 6.6 21.9 6.6 C 21.9 6.2 22.0 5.7 22.3 5.2 C 22.5 4.6 22.6 4.2 22.6 4.0 C 22.6 3.1 22.2 2.4 21.3 1.8 C 20.5 1.3 19.7 1.0 18.8 1.0 C 17.3 1.0 16.0 1.6 14.9 2.9 C 14.6 3.3 14.5 4.4 14.7 6.1 C 14.7 7.9 14.8 9.7 14.9 11.5 C 14.0 10.9 12.3 9.9 9.7 8.5 C 9.4 8.0 8.4 7.4 6.6 6.9 C 5.3 6.7 4.0 7.0 2.6 7.6 C 1.3 8.2 0.6 9.0 0.6 10.1 C 0.6 10.3 0.7 10.6 0.8 10.8 C 1.1 11.4 1.6 11.8 2.4 12.1 C 3.8 12.5 4.5 12.8 4.7 12.9 C 4.7 12.9 11.9 16.8 11.9 16.8 C 11.9 16.8 6.8 19.3 6.8 19.3 C 6.0 19.3 5.0 19.7 3.8 20.4 C 3.5 20.8 3.4 21.2 3.4 21.6 C 3.4 22.9 4.1 24.1 5.6 25.2 C 7.0 26.4 8.5 27.0 10.0 27.0 C 10.5 27.0 10.9 26.9 11.4 26.7 C 11.9 26.6 12.3 26.1 12.7 25.4 C 13.2 24.5 13.9 23.7 14.9 23.1 C 14.9 23.1 15.1 27.7 15.1 27.7 C 14.9 28.4 14.9 29.3 15.1 30.5 C 15.7 31.3 17.0 31.7 19.1 31.7 C 21.0 31.7 22.2 31.1 22.9 30.1 C 23.1 29.6 23.2 28.5 23.0 26.9 C 22.9 25.4 22.7 23.9 22.5 22.4 C 22.5 22.4 25.2 23.8 25.2 23.8 C 25.7 24.4 26.7 25.0 28.2 25.6 C 29.3 25.7 30.3 25.3 31.3 24.4 C 32.3 23.5 32.8 22.6 32.8 21.6 C 32.8 21.1 32.6 20.7 32.4 20.3 C 32.1 19.9 31.7 19.7 31.0 19.5 C 30.2 19.3 29.6 19.1 29.4 18.9 C 29.4 18.9 25.4 16.1 25.4 16.1 C 25.4 16.1 30.5 13.3 30.5 13.3 C 31.2 13.1 32.0 12.7 33.1 12.0 Z M 33.1 12.0 " fill="#4F9900"></path></g></g></g></svg>