<?xml version="1.0" encoding="UTF-8" standalone="no"?><svg xmlns="http://www.w3.org/2000/svg" xmlns:xlink="http://www.w3.org/1999/xlink" clip-rule="evenodd" stroke-miterlimit="10" viewBox="0 0 858 50"><desc>SVG generated by Keynote</desc><defs></defs><g transform="matrix(1.00, 0.00, -0.00, -1.00, 0.0, 50.0)"><text xml:space="preserve" font-family="GillSans-Light,Gill Sans" font-size="66.0" fill="#525252" transform="matrix(1.00, 0.00, -0.00, -1.00, -1.8, 2.2)">G</text><text xml:space="preserve" font-family="GillSans-Light,Gill Sans" font-size="66.0" fill="#525252" transform="matrix(1.00, 0.00, -0.00, -1.00, 45.7, 2.2)">E</text><text xml:space="preserve" font-family="GillSans-Light,Gill Sans" font-size="66.0" fill="#525252" transform="matrix(1.00, 0.00, -0.00, -1.00, 78.1, 2.2)">S</text><text xml:space="preserve" font-family="GillSans-Light,Gill Sans" font-size="66.0" fill="#525252" transform="matrix(1.00, 0.00, -0.00, -1.00, 109.0, 2.2)">T</text><text xml:space="preserve" font-family="GillSans-Light,Gill Sans" font-size="66.0" fill="#525252" transform="matrix(1.00, 0.00, -0.00, -1.00, 146.9, 2.2)">I</text><text xml:space="preserve" font-family="GillSans-Light,Gill Sans" font-size="66.0" fill="#525252" transform="matrix(1.00, 0.00, -0.00, -1.00, 160.6, 2.2)">O</text><text xml:space="preserve" font-family="GillSans-Light,Gill Sans" font-size="66.0" fill="#525252" transform="matrix(1.00, 0.00, -0.00, -1.00, 215.0, 2.2)">N</text><text xml:space="preserve" font-family="GillSans-Light,Gill Sans" font-size="66.0" fill="#525252" transform="matrix(1.00, 0.00, -0.00, -1.00, 265.9, 2.2)"> </text><text xml:space="preserve" font-family="GillSans-Light,Gill Sans" font-size="66.0" fill="#525252" transform="matrix(1.00, 0.00, -0.00, -1.00, 284.2, 2.2)">M</text><text xml:space="preserve" font-family="GillSans-Light,Gill Sans" font-size="66.0" fill="#525252" transform="matrix(1.00, 0.00, -0.00, -1.00, 335.7, 2.2)">U</text><text xml:space="preserve" font-family="GillSans-Light,Gill Sans" font-size="66.0" fill="#525252" transform="matrix(1.00, 0.00, -0.00, -1.00, 381.8, 2.2)">N</text><text xml:space="preserve" font-family="GillSans-Light,Gill Sans" font-size="66.0" fill="#525252" transform="matrix(1.00, 0.00, -0.00, -1.00, 432.7, 2.2)">I</text><text xml:space="preserve" font-family="GillSans-Light,Gill Sans" font-size="66.0" fill="#525252" transform="matrix(1.00, 0.00, -0.00, -1.00, 446.4, 2.2)">C</text><text xml:space="preserve" font-family="GillSans-Light,Gill Sans" font-size="66.0" fill="#525252" transform="matrix(1.00, 0.00, -0.00, -1.00, 491.1, 2.2)">I</text><text xml:space="preserve" font-family="GillSans-Light,Gill Sans" font-size="66.0" fill="#525252" transform="matrix(1.00, 0.00, -0.00, -1.00, 504.8, 2.2)">P</text><text xml:space="preserve" font-family="GillSans-Light,Gill Sans" font-size="66.0" fill="#525252" transform="matrix(1.00, 0.00, -0.00, -1.00, 532.5, 2.2)">A</text><text xml:space="preserve" font-family="GillSans-Light,Gill Sans" font-size="66.0" fill="#525252" transform="matrix(1.00, 0.00, -0.00, -1.00, 576.5, 2.2)">L</text><text xml:space="preserve" font-family="GillSans-Light,Gill Sans" font-size="66.0" fill="#525252" transform="matrix(1.00, 0.00, -0.00, -1.00, 607.5, 2.2)"> </text><text xml:space="preserve" font-family="GillSans-Light,Gill Sans" font-size="66.0" fill="#525252" transform="matrix(1.00, 0.00, -0.00, -1.00, 625.8, 2.2)">D</text><text xml:space="preserve" font-family="GillSans-Light,Gill Sans" font-size="66.0" fill="#525252" transform="matrix(1.00, 0.00, -0.00, -1.00, 674.7, 2.2)">I</text><text xml:space="preserve" font-family="GillSans-Light,Gill Sans" font-size="66.0" fill="#525252" transform="matrix(1.00, 0.00, -0.00, -1.00, 688.4, 2.2)">G</text><text xml:space="preserve" font-family="GillSans-Light,Gill Sans" font-size="66.0" fill="#525252" transform="matrix(1.00, 0.00, -0.00, -1.00, 735.9, 2.2)">I</text><text xml:space="preserve" font-family="GillSans-Light,Gill Sans" font-size="66.0" fill="#525252" transform="matrix(1.00, 0.00, -0.00, -1.00, 749.6, 2.2)">T</text><text xml:space="preserve" font-family="GillSans-Light,Gill Sans" font-size="66.0" fill="#525252" transform="matrix(1.00, 0.00, -0.00, -1.00, 780.9, 2.2)">A</text><text xml:space="preserve" font-family="GillSans-Light,Gill Sans" font-size="66.0" fill="#525252" transform="matrix(1.00, 0.00, -0.00, -1.00, 824.9, 2.2)">L</text></g></svg>