<?xml version="1.0" encoding="UTF-8" standalone="no"?><svg xmlns="http://www.w3.org/2000/svg" xmlns:xlink="http://www.w3.org/1999/xlink" clip-rule="evenodd" stroke-miterlimit="10" viewBox="0 0 683 50"><desc>SVG generated by Keynote</desc><defs></defs><g transform="matrix(1.00, 0.00, -0.00, -1.00, 0.0, 50.0)"><text xml:space="preserve" font-family="GillSans-Light,Gill Sans" font-size="52.0" fill="#525252" transform="matrix(1.00, 0.00, -0.00, -1.00, 1.6, 13.4)">y</text><text xml:space="preserve" font-family="GillSans-Light,Gill Sans" font-size="52.0" fill="#525252" transform="matrix(1.00, 0.00, -0.00, -1.00, 23.3, 13.4)"> </text><text xml:space="preserve" font-family="GillSans-Light,Gill Sans" font-size="52.0" fill="#525252" transform="matrix(1.00, 0.00, -0.00, -1.00, 37.7, 13.4)">r</text><text xml:space="preserve" font-family="GillSans-Light,Gill Sans" font-size="52.0" fill="#525252" transform="matrix(1.00, 0.00, -0.00, -1.00, 55.0, 13.4)">e</text><text xml:space="preserve" font-family="GillSans-Light,Gill Sans" font-size="52.0" fill="#525252" transform="matrix(1.00, 0.00, -0.00, -1.00, 80.0, 13.4)">s</text><text xml:space="preserve" font-family="GillSans-Light,Gill Sans" font-size="52.0" fill="#525252" transform="matrix(1.00, 0.00, -0.00, -1.00, 98.4, 13.4)">o</text><text xml:space="preserve" font-family="GillSans-Light,Gill Sans" font-size="52.0" fill="#525252" transform="matrix(1.00, 0.00, -0.00, -1.00, 126.5, 13.4)">l</text><text xml:space="preserve" font-family="GillSans-Light,Gill Sans" font-size="52.0" fill="#525252" transform="matrix(1.00, 0.00, -0.00, -1.00, 136.3, 13.4)">u</text><text xml:space="preserve" font-family="GillSans-Light,Gill Sans" font-size="52.0" fill="#525252" transform="matrix(1.00, 0.00, -0.00, -1.00, 161.8, 13.4)">c</text><text xml:space="preserve" font-family="GillSans-Light,Gill Sans" font-size="52.0" fill="#525252" transform="matrix(1.00, 0.00, -0.00, -1.00, 183.5, 13.4)">i</text><text xml:space="preserve" font-family="GillSans-Light,Gill Sans" font-size="52.0" fill="#525252" transform="matrix(1.00, 0.00, -0.00, -1.00, 193.3, 13.4)">o</text><text xml:space="preserve" font-family="GillSans-Light,Gill Sans" font-size="52.0" fill="#525252" transform="matrix(1.00, 0.00, -0.00, -1.00, 221.5, 13.4)">n</text><text xml:space="preserve" font-family="GillSans-Light,Gill Sans" font-size="52.0" fill="#525252" transform="matrix(1.00, 0.00, -0.00, -1.00, 247.0, 13.4)">e</text><text xml:space="preserve" font-family="GillSans-Light,Gill Sans" font-size="52.0" fill="#525252" transform="matrix(1.00, 0.00, -0.00, -1.00, 271.9, 13.4)">s</text><text xml:space="preserve" font-family="GillSans-Light,Gill Sans" font-size="52.0" fill="#525252" transform="matrix(1.00, 0.00, -0.00, -1.00, 290.3, 13.4)"> </text><text xml:space="preserve" font-family="GillSans-Light,Gill Sans" font-size="52.0" fill="#525252" transform="matrix(1.00, 0.00, -0.00, -1.00, 304.7, 13.4)">d</text><text xml:space="preserve" font-family="GillSans-Light,Gill Sans" font-size="52.0" fill="#525252" transform="matrix(1.00, 0.00, -0.00, -1.00, 331.2, 13.4)">e</text><text xml:space="preserve" font-family="GillSans-Light,Gill Sans" font-size="52.0" fill="#525252" transform="matrix(1.00, 0.00, -0.00, -1.00, 356.1, 13.4)"> </text><text xml:space="preserve" font-family="GillSans-Light,Gill Sans" font-size="52.0" fill="#525252" transform="matrix(1.00, 0.00, -0.00, -1.00, 370.6, 13.4)">i</text><text xml:space="preserve" font-family="GillSans-Light,Gill Sans" font-size="52.0" fill="#525252" transform="matrix(1.00, 0.00, -0.00, -1.00, 380.3, 13.4)">n</text><text xml:space="preserve" font-family="GillSans-Light,Gill Sans" font-size="52.0" fill="#525252" transform="matrix(1.00, 0.00, -0.00, -1.00, 405.8, 13.4)">t</text><text xml:space="preserve" font-family="GillSans-Light,Gill Sans" font-size="52.0" fill="#525252" transform="matrix(1.00, 0.00, -0.00, -1.00, 421.5, 13.4)">e</text><text xml:space="preserve" font-family="GillSans-Light,Gill Sans" font-size="52.0" fill="#525252" transform="matrix(1.00, 0.00, -0.00, -1.00, 446.4, 13.4)">r</text><text xml:space="preserve" font-family="GillSans-Light,Gill Sans" font-size="52.0" fill="#525252" transform="matrix(1.00, 0.00, -0.00, -1.00, 463.7, 13.4)">é</text><text xml:space="preserve" font-family="GillSans-Light,Gill Sans" font-size="52.0" fill="#525252" transform="matrix(1.00, 0.00, -0.00, -1.00, 488.7, 13.4)">s</text><text xml:space="preserve" font-family="GillSans-Light,Gill Sans" font-size="52.0" fill="#525252" transform="matrix(1.00, 0.00, -0.00, -1.00, 507.1, 13.4)"> </text><text xml:space="preserve" font-family="GillSans-Light,Gill Sans" font-size="52.0" fill="#525252" transform="matrix(1.00, 0.00, -0.00, -1.00, 521.5, 13.4)">p</text><text xml:space="preserve" font-family="GillSans-Light,Gill Sans" font-size="52.0" fill="#525252" transform="matrix(1.00, 0.00, -0.00, -1.00, 548.0, 13.4)">a</text><text xml:space="preserve" font-family="GillSans-Light,Gill Sans" font-size="52.0" fill="#525252" transform="matrix(1.00, 0.00, -0.00, -1.00, 570.2, 13.4)">r</text><text xml:space="preserve" font-family="GillSans-Light,Gill Sans" font-size="52.0" fill="#525252" transform="matrix(1.00, 0.00, -0.00, -1.00, 588.8, 13.4)">a</text><text xml:space="preserve" font-family="GillSans-Light,Gill Sans" font-size="52.0" fill="#525252" transform="matrix(1.00, 0.00, -0.00, -1.00, 611.0, 13.4)"> </text><text xml:space="preserve" font-family="GillSans-Light,Gill Sans" font-size="52.0" fill="#525252" transform="matrix(1.00, 0.00, -0.00, -1.00, 625.4, 13.4)">l</text><text xml:space="preserve" font-family="GillSans-Light,Gill Sans" font-size="52.0" fill="#525252" transform="matrix(1.00, 0.00, -0.00, -1.00, 635.2, 13.4)">o</text><text xml:space="preserve" font-family="GillSans-Light,Gill Sans" font-size="52.0" fill="#525252" transform="matrix(1.00, 0.00, -0.00, -1.00, 663.4, 13.4)">s</text></g></svg>