<?xml version="1.0" encoding="UTF-8" standalone="no"?><svg xmlns="http://www.w3.org/2000/svg" xmlns:xlink="http://www.w3.org/1999/xlink" clip-rule="evenodd" stroke-miterlimit="10" viewBox="0 0 244 247"><desc>SVG generated by Keynote</desc><defs></defs><g transform="matrix(1.00, 0.00, -0.00, -1.00, 0.0, 247.0)"><g><clipPath id="clip0x7fd5cce28260"><path d="M 2.0 245.0 L 241.0 245.0 L 241.0 1.0 L 2.0 1.0 Z M 2.0 245.1 "></path></clipPath><g clip-path="url(#clip0x7fd5cce28260)"><g><clipPath id="clip0x7fd5ccdd4890"><path d="M 114.5 245.0 C 104.9 245.3 93.1 244.2 92.0 242.5 C 90.4 239.9 79.3 233.6 77.8 234.5 C 77.0 235.0 76.4 234.4 76.4 233.2 C 76.4 232.0 74.3 229.2 71.8 227.1 C 69.2 225.0 67.5 223.2 68.0 223.2 C 68.4 223.2 66.7 219.8 64.2 215.6 C 60.4 209.5 59.4 206.0 58.8 196.9 C 58.2 189.0 58.5 185.7 59.7 185.7 C 60.7 185.7 61.8 186.8 62.3 188.3 C 65.3 197.4 73.0 210.6 78.9 216.4 C 85.3 222.8 98.8 231.1 101.5 230.4 C 102.1 230.2 104.3 231.0 106.3 232.1 C 108.3 233.2 114.2 234.4 119.4 234.8 C 126.9 235.4 129.1 235.1 129.7 233.4 C 130.4 231.7 132.5 231.3 137.7 231.7 C 147.5 232.4 148.4 232.6 147.7 233.8 C 146.2 236.1 130.4 242.8 122.8 244.3 C 120.6 244.7 117.7 244.9 114.5 245.0 Z M 239.0 237.2 C 238.1 238.2 229.5 228.6 229.5 226.6 C 229.5 225.8 227.3 223.1 224.7 220.5 C 222.0 218.0 218.1 213.8 216.1 211.2 C 214.0 208.7 209.6 204.9 206.3 202.7 C 203.0 200.5 198.5 197.5 196.3 196.0 C 192.4 193.3 192.2 193.4 188.4 196.4 C 186.2 198.0 184.8 200.0 185.2 200.6 C 185.6 201.3 185.1 201.8 184.1 201.7 C 183.1 201.6 178.5 203.4 174.0 205.6 C 169.4 207.7 162.9 210.0 159.5 210.5 C 153.7 211.4 153.0 211.2 151.0 207.2 C 147.1 199.8 145.4 191.7 147.7 191.7 C 148.7 191.7 150.3 190.8 151.2 189.7 C 153.5 186.9 150.1 176.4 146.6 175.5 C 144.5 174.9 144.3 174.3 145.6 172.7 C 146.9 171.1 146.8 170.5 145.3 170.1 C 144.1 169.7 140.2 168.6 136.4 167.5 C 127.5 164.9 127.0 164.9 126.5 168.2 C 126.3 169.7 125.0 172.2 123.6 173.7 C 122.2 175.3 121.4 177.5 121.8 178.6 C 122.4 180.1 121.6 180.6 119.4 180.4 C 114.8 179.9 114.8 179.9 116.9 177.4 C 117.9 176.2 119.0 172.2 119.4 168.4 C 120.0 162.8 119.6 161.4 117.4 160.6 C 115.9 160.1 113.2 158.3 111.3 156.7 C 108.5 154.1 107.9 154.0 107.1 156.0 C 106.6 157.3 105.1 158.0 103.6 157.6 C 102.2 157.2 99.4 158.2 97.5 159.8 C 94.2 162.4 94.1 162.8 96.4 167.1 L 98.7 171.7 L 89.8 175.9 C 78.2 181.5 75.1 180.2 70.7 168.2 C 67.1 158.1 64.3 147.7 63.8 142.6 C 63.5 140.5 60.9 137.3 57.1 134.6 C 53.6 132.1 47.3 126.2 43.0 121.5 C 29.5 106.7 15.4 93.4 10.9 91.1 C -1.1 85.0 -1.1 85.6 11.3 72.6 C 17.4 66.2 22.0 60.2 21.5 59.4 C 21.0 58.6 21.3 58.1 22.2 58.3 C 23.1 58.6 26.1 55.1 28.9 50.7 L 34.0 42.5 L 36.0 46.2 C 41.5 56.0 55.8 74.4 57.2 73.6 C 58.1 73.0 58.4 73.3 57.8 74.2 C 56.8 75.8 69.5 97.1 71.4 97.1 C 71.9 97.1 77.1 92.4 82.9 86.7 C 88.8 81.0 96.7 73.6 100.4 70.3 L 107.1 64.3 L 102.6 54.9 C 100.1 49.7 96.3 42.9 94.0 39.8 C 91.7 36.6 89.9 33.5 89.9 32.9 C 89.9 32.3 86.7 28.6 82.8 24.7 L 75.7 17.0 L 82.4 17.0 C 93.6 17.0 121.8 7.9 121.2 4.3 C 121.1 3.7 121.1 2.8 121.2 2.2 C 121.3 1.6 123.3 1.3 125.6 1.5 C 129.2 1.8 130.0 2.9 133.0 11.5 C 134.8 16.9 136.3 22.5 136.3 24.0 C 136.4 25.6 139.1 29.5 142.3 32.7 C 148.0 38.5 148.3 38.5 150.3 35.6 C 152.4 32.6 152.5 32.6 156.6 36.9 C 159.2 39.6 161.7 40.9 163.5 40.4 C 165.2 40.0 166.8 40.8 167.7 42.5 C 168.7 44.4 170.7 45.3 173.5 45.2 C 176.6 45.0 178.0 45.8 178.6 48.1 C 179.1 49.9 180.4 51.1 181.4 50.8 C 182.5 50.6 184.3 51.8 185.5 53.5 C 186.7 55.2 188.3 56.2 189.0 55.8 C 189.7 55.4 190.9 56.2 191.8 57.7 C 191.2 57.3 190.7 57.1 190.2 57.5 C 189.1 58.1 188.0 58.5 187.0 58.7 C 186.9 58.7 186.9 58.7 186.8 58.7 C 185.1 58.8 184.3 58.5 183.4 58.3 C 181.9 57.6 180.6 56.3 179.9 54.3 C 179.2 52.2 178.7 51.1 178.2 50.9 C 178.2 50.9 178.2 50.9 178.2 50.9 C 177.7 50.7 177.2 51.2 176.3 52.4 C 175.1 54.0 174.5 54.1 173.7 53.7 C 173.4 53.4 173.1 53.2 172.5 52.2 C 171.6 50.4 169.6 49.0 168.1 49.0 C 166.4 49.0 162.9 45.9 159.7 41.5 C 154.5 34.4 152.2 33.6 151.6 38.4 C 151.6 38.5 151.6 38.5 151.6 38.6 C 151.5 39.2 151.4 39.6 151.4 40.5 C 151.3 44.8 151.1 45.0 149.5 42.4 C 145.1 35.4 139.9 30.5 138.8 32.4 C 137.7 34.0 139.8 52.1 142.3 63.3 C 143.7 69.2 146.1 69.0 146.7 62.9 C 146.9 60.2 147.4 58.0 147.7 58.0 C 150.8 58.0 170.6 65.3 177.0 68.9 C 185.4 73.5 197.4 82.5 200.4 86.4 C 201.4 87.7 202.0 87.6 202.7 86.8 C 203.0 86.6 203.3 86.2 203.6 85.7 C 203.7 85.5 203.8 85.5 203.9 85.3 C 203.9 85.3 203.9 85.2 203.9 85.2 C 204.0 85.1 204.0 85.1 204.1 85.0 C 205.0 83.2 204.9 82.0 204.2 80.7 C 203.9 79.9 203.7 79.2 203.0 78.1 C 201.4 75.6 200.6 71.9 200.8 67.7 C 201.2 60.8 199.1 57.8 196.7 62.1 C 196.2 62.9 196.0 63.0 195.7 63.1 C 195.3 63.1 194.8 62.7 194.5 62.3 C 194.2 61.8 194.0 61.6 193.6 60.6 C 193.3 59.7 192.9 59.3 192.6 58.8 C 194.4 61.5 196.0 60.3 197.1 54.8 C 198.2 49.3 199.4 49.9 200.9 56.8 C 201.5 59.5 202.8 61.6 203.8 61.4 C 204.7 61.2 205.5 62.3 205.5 63.9 C 205.5 65.8 207.4 67.8 210.8 69.4 C 214.1 71.0 216.0 73.0 216.0 74.8 C 216.0 76.4 215.4 77.3 214.6 76.8 C 213.8 76.4 212.8 76.7 212.2 77.6 C 211.6 78.6 210.5 78.3 209.2 76.5 C 207.3 73.9 207.2 73.9 206.2 76.4 C 205.7 77.9 206.3 81.8 207.7 85.2 C 209.5 89.7 209.7 91.9 208.5 93.4 C 207.2 94.8 207.6 96.9 209.8 101.1 C 214.8 111.0 218.0 124.4 218.3 137.1 C 218.5 148.2 219.0 150.2 223.4 157.0 C 226.1 161.2 229.0 164.2 229.9 163.6 C 230.8 163.1 231.0 163.4 230.5 164.3 C 229.9 165.2 231.1 170.2 233.1 175.4 C 238.5 189.4 239.0 190.7 239.6 193.2 C 240.6 197.1 241.6 219.5 240.7 217.2 C 238.6 211.8 238.1 210.2 237.7 207.2 C 237.1 203.0 229.9 188.7 226.4 184.9 C 224.9 183.3 223.7 181.4 223.7 180.8 C 223.5 178.5 218.9 170.6 217.7 170.6 C 217.0 170.6 216.0 169.2 215.5 167.4 C 214.8 164.7 214.3 164.5 212.4 166.1 C 211.1 167.2 210.0 168.8 210.0 169.8 C 210.0 170.9 207.9 174.6 205.4 178.1 C 201.5 183.4 201.1 184.8 202.7 186.3 C 213.0 195.5 224.6 204.9 225.8 205.1 C 226.6 205.3 227.1 206.3 226.9 207.4 C 226.6 208.6 227.8 210.3 229.5 211.2 C 231.2 212.1 232.2 213.5 231.7 214.3 C 231.2 215.1 231.5 216.7 232.4 217.8 C 234.6 220.4 240.0 236.3 239.0 237.2 Z M 187.3 119.7 C 187.8 119.8 188.2 119.7 188.3 119.4 C 189.6 117.4 182.8 106.3 176.7 100.5 C 174.0 97.8 168.8 94.7 165.3 93.4 C 159.0 91.2 158.8 91.2 157.5 94.5 C 156.3 97.3 157.2 98.8 163.4 104.6 C 171.0 111.6 183.4 119.3 187.3 119.7 Z M 230.2 102.4 C 229.5 101.9 229.1 100.0 228.5 96.4 C 227.5 90.3 229.3 89.7 234.3 94.4 C 236.9 97.0 236.9 97.2 233.9 100.2 C 232.0 102.1 231.0 102.9 230.2 102.4 Z M 222.7 91.2 C 222.1 91.0 221.0 89.9 219.0 87.8 C 216.7 85.2 215.1 82.3 215.5 81.3 C 216.5 78.5 220.6 79.2 224.5 82.8 C 228.1 86.2 229.4 89.1 226.4 87.3 C 225.6 86.7 224.5 87.6 224.0 89.3 C 223.7 90.8 223.4 91.4 222.7 91.2 Z M 206.6 90.4 C 207.1 90.3 207.4 90.1 207.7 89.7 C 208.2 88.9 207.9 87.9 207.2 87.4 C 206.4 86.9 205.3 87.1 204.9 87.9 C 204.4 88.7 204.6 89.7 205.4 90.2 C 205.8 90.5 206.2 90.5 206.6 90.4 Z M 74.9 70.0 C 74.0 70.0 72.7 68.3 71.9 66.3 C 70.9 63.7 69.3 62.5 66.8 62.5 C 64.8 62.5 62.8 61.5 62.2 60.1 C 60.8 56.3 64.7 49.8 68.9 49.2 C 74.5 48.5 75.4 46.8 72.9 41.3 C 71.6 38.5 70.1 34.7 69.6 32.9 C 68.1 27.7 72.4 30.1 74.5 35.7 C 75.5 38.2 76.9 39.8 77.7 39.3 C 78.5 38.8 79.4 40.3 79.7 42.6 C 80.0 45.4 80.9 46.6 82.4 46.2 C 83.6 46.0 84.1 46.2 83.5 46.9 C 82.9 47.5 83.0 48.7 83.7 49.6 C 88.6 55.6 82.4 70.0 74.9 70.0 Z M 89.9 60.3 C 89.1 59.8 88.4 58.7 88.4 57.9 C 88.4 57.1 89.1 56.5 89.9 56.5 C 90.7 56.5 91.4 57.6 91.4 58.9 C 91.4 60.2 90.7 60.8 89.9 60.3 Z M 162.4 57.5 C 162.1 57.3 162.0 57.1 162.0 56.6 C 162.0 55.7 162.6 55.0 163.5 55.0 C 163.9 55.0 164.0 55.2 164.3 55.3 C 164.4 55.7 164.4 56.0 164.5 56.2 C 164.2 56.5 164.0 56.9 163.5 57.3 C 163.1 57.5 162.7 57.6 162.4 57.5 Z M 160.2 56.5 C 159.8 56.5 157.9 54.8 156.0 52.8 C 154.0 50.7 152.8 49.0 153.2 49.0 C 153.6 49.0 155.3 50.6 157.1 52.4 C 157.3 52.6 157.5 52.9 157.7 53.1 C 159.3 54.9 160.6 56.5 160.2 56.5 Z M 55.4 53.0 C 54.5 53.2 53.5 53.1 52.5 52.8 C 49.1 51.7 47.2 47.6 49.2 45.6 C 50.0 44.7 51.2 45.4 52.3 47.5 C 54.8 52.2 59.0 48.6 57.8 42.7 C 57.3 40.4 57.3 37.5 57.8 36.3 C 58.5 34.5 59.6 34.8 63.7 38.1 C 66.4 40.3 68.3 42.7 67.9 43.4 C 67.4 44.1 65.9 43.6 64.5 42.3 C 61.3 39.5 59.9 40.6 59.9 46.1 C 59.9 49.8 58.0 52.4 55.4 53.0 Z M 177.2 34.3 C 176.3 34.7 176.3 33.6 176.7 30.2 C 177.0 27.3 177.5 25.0 177.6 25.0 C 177.8 25.0 179.6 26.7 181.6 28.9 C 183.7 31.3 184.3 32.6 183.0 32.2 C 181.7 31.7 179.7 32.3 178.4 33.4 C 177.9 33.8 177.5 34.1 177.2 34.3 Z M 177.2 34.3 "></path></clipPath><g clip-path="url(#clip0x7fd5ccdd4890)"><image xlink:href="E9CE1D2A9EAA0B72B2B2CA44794148CF.jpeg" width="180.00" height="180.00" transform="matrix(1.50, 0.00, -0.00, -1.51, -15.0, 261.0)"></image></g></g></g></g></g></svg>