<?xml version="1.0" encoding="UTF-8" standalone="no"?><svg xmlns="http://www.w3.org/2000/svg" xmlns:xlink="http://www.w3.org/1999/xlink" clip-rule="evenodd" stroke-miterlimit="10" viewBox="0 0 562 584"><desc>SVG generated by Keynote</desc><defs></defs><g transform="matrix(1.00, 0.00, -0.00, -1.00, 0.0, 584.0)"><image xlink:href="../../5925ECCE-EB0A-466C-A867-9B2B43426E7A/assets/4F7B532DCC11EE47F9DA0BC2E9161002.png" width="558.00" height="568.00" transform="matrix(1.00, 0.00, -0.00, -1.00, 1.8, 570.1)" opacity="0.60"></image><g><clipPath id="clip0x7fd5cf85ddb0"><path d="M 12.0 566.0 L 550.0 566.0 L 550.0 18.0 L 12.0 18.0 Z M 12.0 566.1 "></path></clipPath><g clip-path="url(#clip0x7fd5cf85ddb0)"><g><clipPath id="clip0x7fd5cf85ff90"><path d="M 265.2 566.0 C 243.7 566.6 217.0 564.1 214.6 560.3 C 211.0 554.4 186.0 540.3 182.7 542.3 C 180.9 543.5 179.4 542.1 179.4 539.4 C 179.4 536.7 174.8 530.5 169.1 525.7 C 163.4 520.9 159.5 516.9 160.6 516.9 C 161.6 516.9 157.8 509.3 152.0 499.9 C 143.5 486.1 141.2 478.1 139.9 457.7 C 138.7 440.0 139.2 432.4 142.0 432.4 C 144.1 432.4 146.7 435.1 147.8 438.3 C 154.5 459.0 171.9 488.5 185.2 501.7 C 199.4 516.0 229.9 534.8 235.9 533.1 C 237.4 532.6 242.3 534.4 246.8 536.9 C 251.3 539.3 264.6 542.1 276.3 543.1 C 293.1 544.4 298.0 543.8 299.5 539.8 C 300.9 536.1 305.7 535.2 317.3 536.0 C 339.5 537.6 341.5 538.0 339.8 540.7 C 336.5 546.0 301.0 561.0 283.9 564.3 C 279.0 565.3 272.4 565.8 265.2 566.0 Z M 545.4 548.5 C 543.3 550.6 524.1 529.1 524.1 524.6 C 524.1 522.8 519.1 516.7 513.1 510.9 C 507.1 505.1 498.3 495.7 493.8 490.0 C 489.2 484.3 479.3 475.7 471.8 470.8 C 464.3 465.8 454.2 459.0 449.2 455.7 C 440.5 449.7 440.0 449.8 431.5 456.5 C 426.6 460.3 423.4 464.6 424.3 466.1 C 425.2 467.6 424.2 468.7 421.9 468.5 C 419.6 468.4 409.3 472.3 399.1 477.2 C 388.8 482.1 374.2 487.2 366.4 488.4 C 353.4 490.5 351.9 490.0 347.3 481.0 C 338.7 464.2 334.8 445.9 339.8 445.9 C 342.2 445.9 345.8 443.9 347.9 441.5 C 353.1 435.2 345.3 411.6 337.4 409.5 C 332.7 408.3 332.2 406.9 335.2 403.3 C 338.1 399.8 337.9 398.4 334.4 397.4 C 331.9 396.6 323.0 394.0 314.6 391.6 C 294.6 385.7 293.4 385.8 292.3 393.1 C 291.8 396.5 288.9 402.1 285.8 405.6 C 282.6 409.1 280.8 414.0 281.8 416.6 C 283.0 419.9 281.3 421.2 276.3 420.6 C 266.0 419.5 266.0 419.5 270.6 414.0 C 272.8 411.2 275.4 402.1 276.3 393.7 C 277.6 381.0 276.8 378.0 271.7 376.2 C 268.3 375.0 262.2 370.9 258.1 367.2 C 251.7 361.4 250.3 361.2 248.6 365.7 C 247.5 368.6 244.0 370.2 240.7 369.3 C 237.4 368.4 231.3 370.7 227.0 374.2 C 219.5 380.2 219.4 380.9 224.4 390.7 L 229.7 401.0 L 209.8 410.5 C 183.5 423.0 176.5 420.3 166.8 393.1 C 158.7 370.5 152.3 347.0 151.0 335.6 C 150.5 330.9 144.5 323.7 136.1 317.6 C 128.3 311.9 114.0 298.6 104.3 288.0 C 74.0 254.9 42.2 224.8 32.1 219.6 C 5.2 205.9 5.2 207.3 33.0 178.1 C 46.8 163.6 57.2 150.3 56.0 148.4 C 54.9 146.6 55.6 145.5 57.6 146.0 C 59.6 146.5 66.4 138.7 72.7 128.7 L 84.1 110.4 L 88.6 118.6 C 101.0 140.8 133.2 182.2 136.4 180.2 C 138.4 178.9 138.9 179.6 137.6 181.7 C 135.5 185.2 164.0 233.1 168.3 233.1 C 169.3 233.1 181.0 222.6 194.2 209.8 C 207.5 196.9 225.1 180.4 233.4 172.9 L 248.6 159.4 L 238.5 138.2 C 232.9 126.5 224.3 111.3 219.1 104.2 C 214.0 97.1 209.9 90.1 209.9 88.8 C 209.9 87.4 202.7 79.1 193.9 70.2 L 178.0 54.0 L 193.1 54.0 C 218.2 54.0 281.6 32.5 280.4 24.4 C 280.2 23.0 280.2 20.9 280.4 19.6 C 280.6 18.3 285.0 17.6 290.1 18.0 C 298.3 18.6 300.2 21.2 306.8 40.6 C 310.9 52.7 314.3 65.3 314.4 68.8 C 314.5 72.3 320.5 81.1 327.8 88.3 C 340.7 101.2 341.2 101.4 345.8 94.8 C 350.5 88.1 350.7 88.1 359.9 97.6 C 365.7 103.7 371.5 106.7 375.4 105.7 C 379.2 104.7 382.9 106.5 385.0 110.4 C 387.2 114.5 391.7 116.6 397.9 116.3 C 404.9 116.0 408.0 117.7 409.5 123.0 C 410.6 126.9 413.5 129.6 415.8 129.1 C 418.2 128.6 422.4 131.2 425.0 135.0 C 427.7 138.8 431.3 141.2 433.0 140.2 C 434.5 139.3 437.1 141.2 439.1 144.5 C 437.9 143.6 436.7 143.3 435.6 144.0 C 433.2 145.5 430.7 146.4 428.4 146.8 C 428.2 146.8 428.2 146.8 428.0 146.8 C 424.2 147.0 422.3 146.4 420.3 145.8 C 416.9 144.2 414.1 141.4 412.5 136.9 C 410.8 132.2 409.8 129.8 408.7 129.2 C 408.6 129.2 408.5 129.2 408.5 129.2 C 407.4 128.8 406.3 130.0 404.3 132.6 C 401.7 136.1 400.2 136.5 398.4 135.5 C 397.7 134.8 397.0 134.3 395.8 132.1 C 393.7 128.2 389.3 125.0 385.8 125.0 C 382.0 125.0 374.2 118.0 367.0 108.1 C 355.1 92.0 350.1 90.3 348.8 101.1 C 348.8 101.3 348.7 101.4 348.7 101.5 C 348.5 103.0 348.2 103.9 348.2 105.8 C 348.0 115.5 347.6 115.9 343.9 110.1 C 334.2 94.4 322.4 83.3 319.9 87.5 C 317.5 91.3 322.2 132.0 327.9 157.1 C 330.9 170.5 336.3 170.0 337.6 156.2 C 338.2 150.2 339.2 145.3 339.8 145.3 C 347.0 145.3 391.5 161.7 405.8 169.6 C 424.8 180.1 451.8 200.3 458.6 209.1 C 460.8 211.9 462.2 211.7 463.8 210.0 C 464.4 209.5 465.1 208.6 465.8 207.4 C 466.0 207.1 466.1 207.1 466.3 206.7 C 466.4 206.6 466.4 206.5 466.4 206.4 C 466.5 206.2 466.6 206.1 466.7 205.9 C 468.9 201.9 468.6 199.2 467.1 196.2 C 466.4 194.5 466.0 192.8 464.4 190.4 C 460.7 184.7 458.9 176.4 459.5 167.1 C 460.4 151.5 455.5 144.8 450.2 154.4 C 449.2 156.2 448.5 156.4 447.8 156.8 C 447.0 156.7 446.0 155.9 445.2 154.9 C 444.6 153.7 444.1 153.3 443.2 151.0 C 442.5 149.0 441.7 148.1 440.9 146.9 C 445.0 153.1 448.5 150.4 451.0 138.1 C 453.5 125.5 456.3 126.9 459.7 142.5 C 461.0 148.6 463.9 153.3 466.1 152.9 C 468.3 152.4 470.0 154.9 470.0 158.6 C 470.0 162.8 474.3 167.2 481.8 170.8 C 489.4 174.4 493.7 178.9 493.7 183.0 C 493.7 186.7 492.2 188.7 490.5 187.6 C 488.8 186.5 486.3 187.3 485.1 189.3 C 483.7 191.6 481.2 190.8 478.4 186.8 C 474.1 181.1 473.8 181.0 471.6 186.6 C 470.3 189.9 471.8 198.8 474.9 206.4 C 478.9 216.6 479.4 221.5 476.7 224.8 C 473.9 228.1 474.7 232.6 479.6 242.3 C 491.0 264.6 498.1 294.5 498.7 323.3 C 499.3 348.1 500.5 352.6 510.3 368.0 C 516.4 377.5 522.9 384.1 524.9 382.9 C 526.9 381.7 527.5 382.3 526.2 384.4 C 524.9 386.4 527.6 397.7 532.1 409.4 C 544.2 440.9 545.3 443.8 546.7 449.3 C 548.9 458.1 551.3 508.7 549.2 503.4 C 544.5 491.2 543.4 487.8 542.4 481.0 C 541.2 471.5 524.9 439.3 517.1 430.7 C 513.7 427.0 510.9 422.9 510.9 421.5 C 510.6 416.2 500.2 398.6 497.4 398.6 C 495.8 398.6 493.6 395.4 492.5 391.4 C 490.9 385.2 489.9 384.7 485.4 388.4 C 482.5 390.8 480.1 394.6 480.1 396.9 C 480.1 399.1 475.4 407.5 469.7 415.4 C 461.1 427.3 460.0 430.6 463.8 433.9 C 486.9 454.6 512.9 475.8 515.6 476.3 C 517.5 476.6 518.6 478.9 518.1 481.4 C 517.5 484.0 520.2 487.8 524.1 489.9 C 527.9 491.9 530.1 495.1 528.9 496.9 C 527.8 498.8 528.5 502.3 530.5 504.8 C 535.5 510.7 547.6 546.3 545.4 548.5 Z M 428.9 284.1 C 430.2 284.2 431.0 284.0 431.4 283.5 C 434.2 278.9 418.9 253.8 405.3 240.8 C 399.1 234.8 387.5 227.7 379.5 224.9 C 365.4 219.9 364.9 220.0 361.9 227.3 C 359.3 233.7 361.3 237.0 375.3 250.0 C 392.4 265.8 420.3 283.1 428.9 284.1 Z M 525.7 245.1 C 524.0 244.0 523.1 239.7 521.7 231.6 C 519.5 217.9 523.6 216.6 534.7 227.2 C 540.7 232.9 540.7 233.4 533.9 240.2 C 529.7 244.4 527.3 246.3 525.7 245.1 Z M 508.8 220.0 C 507.3 219.5 504.8 217.1 500.3 212.2 C 495.1 206.5 491.5 200.0 492.4 197.7 C 494.8 191.4 503.9 192.9 512.7 201.1 C 520.8 208.6 523.7 215.1 517.1 211.0 C 515.1 209.8 512.7 211.9 511.7 215.7 C 510.9 218.9 510.3 220.5 508.8 220.0 Z M 472.5 218.2 C 473.5 218.0 474.3 217.4 474.9 216.5 C 476.0 214.8 475.5 212.4 473.7 211.3 C 471.9 210.3 469.6 210.7 468.5 212.5 C 467.4 214.3 467.9 216.6 469.7 217.7 C 470.6 218.2 471.6 218.4 472.5 218.2 Z M 176.2 172.3 C 174.2 172.3 171.1 168.5 169.3 163.8 C 167.1 158.0 163.5 155.4 157.9 155.4 C 153.4 155.4 148.8 153.0 147.7 150.0 C 144.3 141.3 153.2 126.8 162.6 125.5 C 175.3 123.8 177.3 120.0 171.6 107.6 C 168.8 101.3 165.4 92.8 164.2 88.7 C 160.9 76.9 170.5 82.5 175.2 95.0 C 177.4 100.7 180.6 104.4 182.4 103.2 C 184.2 102.1 186.2 105.4 186.8 110.5 C 187.6 116.8 189.6 119.5 193.0 118.7 C 195.8 118.1 196.9 118.7 195.5 120.1 C 194.1 121.5 194.4 124.3 196.0 126.4 C 207.0 139.8 193.0 172.3 176.2 172.3 Z M 209.9 150.3 C 208.0 149.2 206.5 146.8 206.5 145.0 C 206.5 143.3 208.0 141.9 209.9 141.9 C 211.7 141.9 213.2 144.3 213.2 147.2 C 213.2 150.0 211.7 151.5 209.9 150.3 Z M 373.0 144.0 C 372.4 143.7 372.0 143.1 372.0 142.1 C 372.0 140.1 373.6 138.5 375.4 138.5 C 376.4 138.5 376.6 138.9 377.2 139.2 C 377.5 140.0 377.5 140.6 377.6 141.1 C 377.0 141.9 376.6 142.8 375.4 143.6 C 374.5 144.1 373.6 144.3 373.0 144.0 Z M 368.1 141.9 C 367.2 141.9 362.9 138.1 358.5 133.4 C 354.2 128.8 351.4 125.0 352.3 125.0 C 353.1 125.0 357.1 128.6 361.1 132.7 C 361.5 133.1 361.9 133.8 362.4 134.2 C 366.1 138.3 369.0 141.9 368.1 141.9 Z M 132.3 134.0 C 130.3 134.4 128.1 134.2 125.8 133.5 C 118.0 131.1 113.7 121.8 118.2 117.3 C 120.2 115.3 122.8 116.9 125.3 121.5 C 130.9 132.1 140.3 124.0 137.6 110.8 C 136.6 105.6 136.6 99.1 137.6 96.4 C 139.2 92.3 141.7 93.1 150.8 100.4 C 157.0 105.3 161.3 110.7 160.3 112.3 C 159.3 113.9 155.8 112.9 152.6 110.0 C 145.5 103.6 142.3 106.1 142.3 118.3 C 142.3 126.7 138.1 132.7 132.3 134.0 Z M 406.3 91.8 C 404.3 92.8 404.3 90.4 405.2 82.6 C 405.9 76.2 406.9 70.9 407.3 70.9 C 407.7 70.9 411.7 74.9 416.2 79.8 C 421.0 85.0 422.3 88.1 419.3 87.1 C 416.5 86.1 412.0 87.3 409.1 89.8 C 407.9 90.8 407.0 91.5 406.3 91.8 Z M 406.3 91.8 "></path></clipPath><g clip-path="url(#clip0x7fd5cf85ff90)"><image xlink:href="../../670AF0A5-B06C-45B2-A649-BC83FE98871A/assets/E9CE1D2A9EAA0B72B2B2CA44794148CF.jpeg" width="180.00" height="180.00" transform="matrix(3.38, 0.00, -0.00, -3.38, -27.0, 601.0)"></image></g></g></g></g></g></svg>