<?xml version="1.0" encoding="UTF-8" standalone="no"?><svg xmlns="http://www.w3.org/2000/svg" xmlns:xlink="http://www.w3.org/1999/xlink" clip-rule="evenodd" stroke-miterlimit="10" viewBox="0 0 1920 1080"><desc>SVG generated by Keynote</desc><defs></defs><g transform="matrix(1.00, 0.00, -0.00, -1.00, 0.0, 1080.0)"><g><clipPath id="clip0x7fd5cf890770"><path d="M 0.0 1080.0 L 1920.0 1080.0 L 1920.0 0.0 L 0.0 0.0 Z M 0.0 1080.0 "></path></clipPath><g clip-path="url(#clip0x7fd5cf890770)"><image xlink:href="../../670AF0A5-B06C-45B2-A649-BC83FE98871A/assets/400D38DE9BD779267D8D9BA1A44336F3.jpeg" width="3840.00" height="2160.00" transform="matrix(0.50, 0.00, -0.00, -0.50, 0.0, 1080.0)"></image></g></g><g><clipPath id="clip0x7fd5ce6731a0"><path d="M 332.0 804.0 L 1765.0 804.0 L 1765.0 287.0 L 332.0 287.0 Z M 331.5 804.2 "></path></clipPath><g clip-path="url(#clip0x7fd5ce6731a0)"><image xlink:href="B423441218FDC35BCA7262803A6D0783.png" width="1545.00" height="909.00" transform="matrix(1.00, 0.00, -0.00, -1.00, 276.0, 1031.0)"></image></g></g><image xlink:href="C85F3754292B396B6E42DBDC75662BDC.png" width="5973.00" height="505.00" transform="matrix(0.24, 0.00, -0.00, -0.24, 331.5, 287.0)"></image><image xlink:href="9F11EF69BCDB44634A8AA95F9A99624E.png" width="209.00" height="213.00" transform="matrix(1.00, 0.00, -0.00, -1.00, 29.8, 1059.7)" opacity="0.60"></image><g><clipPath id="clip0x7fd5cfb96ac0"><path d="M 40.0 1056.0 L 229.0 1056.0 L 229.0 863.0 L 40.0 863.0 Z M 40.1 1055.7 "></path></clipPath><g clip-path="url(#clip0x7fd5cfb96ac0)"><g><clipPath id="clip0x7fd5cfb8be90"><path d="M 129.2 1055.6 C 121.6 1055.9 112.2 1055.0 111.4 1053.6 C 110.1 1051.6 101.3 1046.6 100.1 1047.3 C 99.5 1047.7 99.0 1047.2 99.0 1046.3 C 99.0 1045.3 97.4 1043.1 95.3 1041.4 C 93.3 1039.8 92.0 1038.4 92.3 1038.4 C 92.7 1038.4 91.4 1035.7 89.3 1032.4 C 86.3 1027.5 85.5 1024.7 85.1 1017.5 C 84.6 1011.3 84.8 1008.6 85.8 1008.6 C 86.5 1008.6 87.5 1009.6 87.8 1010.7 C 90.2 1018.0 96.3 1028.4 101.0 1033.0 C 106.0 1038.0 116.7 1044.7 118.9 1044.0 C 119.4 1043.9 121.1 1044.5 122.7 1045.4 C 124.3 1046.3 128.9 1047.2 133.1 1047.6 C 139.0 1048.1 140.7 1047.8 141.2 1046.4 C 141.7 1045.1 143.4 1044.8 147.5 1045.1 C 155.3 1045.6 156.0 1045.8 155.4 1046.7 C 154.3 1048.6 141.8 1053.9 135.7 1055.0 C 134.0 1055.4 131.7 1055.6 129.2 1055.6 Z M 227.8 1049.5 C 227.0 1050.2 220.3 1042.7 220.3 1041.1 C 220.3 1040.4 218.5 1038.3 216.4 1036.2 C 214.3 1034.2 211.2 1030.9 209.6 1028.9 C 208.0 1026.9 204.5 1023.9 201.9 1022.1 C 199.2 1020.4 195.7 1018.0 193.9 1016.8 C 190.9 1014.7 190.7 1014.7 187.7 1017.1 C 186.0 1018.4 184.8 1020.0 185.2 1020.5 C 185.5 1021.0 185.1 1021.4 184.3 1021.3 C 183.5 1021.3 179.9 1022.7 176.3 1024.4 C 172.7 1026.1 167.5 1027.9 164.8 1028.3 C 160.2 1029.1 159.7 1028.9 158.1 1025.7 C 155.0 1019.8 153.7 1013.4 155.4 1013.4 C 156.3 1013.4 157.5 1012.7 158.3 1011.8 C 160.1 1009.6 157.4 1001.3 154.6 1000.6 C 152.9 1000.1 152.7 999.6 153.8 998.4 C 154.8 997.1 154.8 996.7 153.5 996.3 C 152.6 996.0 149.5 995.1 146.5 994.3 C 139.5 992.2 139.1 992.2 138.7 994.8 C 138.5 996.0 137.5 998.0 136.4 999.2 C 135.3 1000.4 134.6 1002.1 135.0 1003.1 C 135.4 1004.2 134.8 1004.7 133.1 1004.5 C 129.4 1004.1 129.4 1004.1 131.1 1002.1 C 131.9 1001.2 132.8 998.0 133.1 995.0 C 133.5 990.5 133.2 989.5 131.5 988.8 C 130.3 988.4 128.1 987.0 126.7 985.7 C 124.4 983.6 123.9 983.6 123.3 985.2 C 122.9 986.2 121.7 986.7 120.5 986.4 C 119.4 986.1 117.2 986.9 115.7 988.1 C 113.1 990.3 113.0 990.5 114.8 994.0 L 116.7 997.6 L 109.7 1000.9 C 100.4 1005.3 98.0 1004.3 94.5 994.8 C 91.7 986.8 89.4 978.6 89.0 974.6 C 88.8 972.9 86.7 970.4 83.7 968.2 C 81.0 966.2 76.0 961.6 72.5 957.8 C 61.9 946.1 50.7 935.5 47.1 933.7 C 37.6 928.9 37.6 929.4 47.4 919.1 C 52.3 914.0 56.0 909.3 55.5 908.7 C 55.1 908.0 55.4 907.6 56.1 907.8 C 56.8 908.0 59.2 905.3 61.4 901.7 L 65.4 895.3 L 67.0 898.2 C 71.4 906.0 82.7 920.6 83.8 919.9 C 84.5 919.4 84.7 919.6 84.3 920.4 C 83.5 921.6 93.6 938.5 95.0 938.5 C 95.4 938.5 99.5 934.8 104.2 930.3 C 108.8 925.8 115.0 919.9 118.0 917.3 L 123.3 912.5 L 119.8 905.1 C 117.8 901.0 114.8 895.6 113.0 893.1 C 111.2 890.6 109.7 888.2 109.7 887.7 C 109.7 887.2 107.2 884.3 104.1 881.1 L 98.5 875.0 L 103.8 875.0 C 112.6 875.0 134.9 867.9 134.5 865.0 C 134.4 864.5 134.4 863.8 134.5 863.3 C 134.6 862.9 136.1 862.7 137.9 862.8 C 140.8 863.0 141.5 863.9 143.8 870.7 C 145.2 875.0 146.4 879.4 146.5 880.7 C 146.5 881.9 148.6 885.0 151.2 887.5 C 155.7 892.1 155.9 892.1 157.5 889.8 C 159.2 887.4 159.3 887.4 162.5 890.8 C 164.5 892.9 166.6 894.0 168.0 893.6 C 169.3 893.3 170.6 893.9 171.3 895.3 C 172.1 896.8 173.7 897.5 175.9 897.4 C 178.3 897.3 179.4 897.9 180.0 899.7 C 180.3 901.1 181.3 902.1 182.2 901.9 C 183.0 901.7 184.5 902.6 185.4 904.0 C 186.4 905.3 187.6 906.1 188.2 905.8 C 188.7 905.5 189.7 906.2 190.4 907.3 C 189.9 907.0 189.5 906.9 189.1 907.1 C 188.3 907.7 187.4 908.0 186.6 908.1 C 186.5 908.1 186.5 908.1 186.5 908.1 C 185.1 908.2 184.5 908.0 183.7 907.8 C 182.6 907.2 181.6 906.2 181.0 904.6 C 180.4 903.0 180.0 902.1 179.7 901.9 C 179.6 901.9 179.6 901.9 179.6 901.9 C 179.2 901.8 178.8 902.2 178.1 903.1 C 177.2 904.4 176.7 904.5 176.1 904.1 C 175.8 903.9 175.6 903.7 175.1 902.9 C 174.4 901.6 172.8 900.4 171.6 900.4 C 170.3 900.4 167.5 898.0 165.0 894.5 C 160.8 888.8 159.1 888.2 158.6 892.0 C 158.6 892.1 158.6 892.1 158.6 892.2 C 158.5 892.7 158.4 893.0 158.4 893.7 C 158.3 897.1 158.2 897.2 156.9 895.2 C 153.4 889.7 149.3 885.8 148.4 887.2 C 147.6 888.6 149.2 902.9 151.2 911.7 C 152.3 916.4 154.2 916.3 154.6 911.4 C 154.9 909.3 155.2 907.6 155.4 907.6 C 157.9 907.6 173.6 913.4 178.7 916.2 C 185.3 919.8 194.8 926.9 197.2 930.0 C 198.0 931.0 198.5 931.0 199.1 930.3 C 199.3 930.2 199.5 929.9 199.8 929.5 C 199.8 929.3 199.9 929.3 199.9 929.2 C 200.0 929.1 200.0 929.1 200.0 929.1 C 200.0 929.0 200.0 929.0 200.1 928.9 C 200.8 927.5 200.8 926.5 200.2 925.5 C 200.0 924.9 199.8 924.3 199.3 923.5 C 198.0 921.5 197.3 918.5 197.5 915.3 C 197.9 909.7 196.2 907.4 194.3 910.8 C 193.9 911.4 193.7 911.5 193.4 911.6 C 193.1 911.6 192.8 911.3 192.5 910.9 C 192.3 910.5 192.1 910.4 191.8 909.6 C 191.6 908.9 191.3 908.6 191.0 908.2 C 192.5 910.3 193.7 909.4 194.6 905.0 C 195.4 900.6 196.4 901.1 197.6 906.6 C 198.1 908.8 199.1 910.4 199.9 910.2 C 200.6 910.1 201.2 911.0 201.2 912.2 C 201.2 913.7 202.7 915.3 205.4 916.6 C 208.1 917.8 209.6 919.4 209.6 920.9 C 209.6 922.1 209.1 922.8 208.5 922.5 C 207.8 922.1 207.0 922.4 206.6 923.1 C 206.1 923.9 205.2 923.6 204.2 922.2 C 202.7 920.2 202.6 920.2 201.8 922.1 C 201.4 923.3 201.9 926.4 203.0 929.1 C 204.4 932.7 204.5 934.4 203.6 935.5 C 202.6 936.7 202.9 938.3 204.6 941.7 C 208.6 949.6 211.1 960.1 211.4 970.2 C 211.6 979.0 212.0 980.6 215.4 986.0 C 217.6 989.3 219.9 991.6 220.6 991.2 C 221.3 990.8 221.5 991.0 221.0 991.7 C 220.6 992.4 221.5 996.4 223.1 1000.5 C 227.3 1011.6 227.7 1012.6 228.2 1014.6 C 229.0 1017.7 229.8 1035.5 229.1 1033.6 C 227.4 1029.3 227.1 1028.1 226.7 1025.7 C 226.3 1022.4 220.6 1011.0 217.8 1008.0 C 216.6 1006.7 215.7 1005.3 215.6 1004.8 C 215.5 1002.9 211.9 996.7 210.9 996.7 C 210.3 996.7 209.5 995.6 209.2 994.2 C 208.6 992.0 208.2 991.8 206.7 993.1 C 205.7 994.0 204.8 995.3 204.8 996.1 C 204.8 996.9 203.2 999.9 201.1 1002.7 C 198.1 1006.8 197.7 1008.0 199.1 1009.2 C 207.2 1016.4 216.3 1023.9 217.3 1024.1 C 218.0 1024.2 218.3 1025.0 218.2 1025.9 C 218.0 1026.8 218.9 1028.1 220.3 1028.8 C 221.6 1029.6 222.4 1030.7 222.0 1031.3 C 221.6 1032.0 221.8 1033.2 222.5 1034.1 C 224.3 1036.2 228.5 1048.7 227.8 1049.5 Z M 186.8 956.4 C 187.2 956.5 187.5 956.4 187.6 956.2 C 188.6 954.6 183.2 945.8 178.5 941.2 C 176.3 939.1 172.2 936.6 169.4 935.6 C 164.4 933.8 164.2 933.9 163.2 936.4 C 162.3 938.7 163.0 939.9 167.9 944.4 C 173.9 950.0 183.8 956.1 186.8 956.4 Z M 220.8 942.7 C 220.2 942.3 219.9 940.8 219.5 938.0 C 218.7 933.1 220.1 932.7 224.0 936.4 C 226.1 938.4 226.1 938.6 223.7 941.0 C 222.2 942.5 221.4 943.1 220.8 942.7 Z M 214.9 933.9 C 214.4 933.7 213.5 932.8 211.9 931.1 C 210.1 929.1 208.8 926.8 209.1 926.0 C 210.0 923.8 213.2 924.3 216.3 927.2 C 219.1 929.9 220.1 932.1 217.8 930.7 C 217.1 930.3 216.3 931.0 215.9 932.4 C 215.6 933.5 215.4 934.0 214.9 933.9 Z M 202.1 933.2 C 202.5 933.2 202.8 933.0 203.0 932.6 C 203.3 932.0 203.2 931.2 202.5 930.8 C 201.9 930.4 201.1 930.6 200.7 931.2 C 200.3 931.9 200.5 932.7 201.1 933.1 C 201.4 933.2 201.8 933.3 202.1 933.2 Z M 97.8 917.1 C 97.1 917.1 96.0 915.7 95.4 914.1 C 94.6 912.1 93.4 911.1 91.4 911.1 C 89.8 911.1 88.2 910.3 87.8 909.2 C 86.6 906.2 89.7 901.1 93.0 900.6 C 97.5 900.0 98.2 898.7 96.2 894.3 C 95.2 892.1 94.1 889.1 93.6 887.6 C 92.5 883.5 95.8 885.5 97.5 889.9 C 98.3 891.9 99.4 893.2 100.0 892.8 C 100.7 892.4 101.4 893.5 101.6 895.3 C 101.8 897.5 102.6 898.5 103.7 898.2 C 104.7 898.0 105.1 898.2 104.6 898.7 C 104.1 899.2 104.2 900.2 104.8 900.9 C 108.7 905.7 103.8 917.1 97.8 917.1 Z M 109.7 909.4 C 109.0 908.9 108.5 908.1 108.5 907.5 C 108.5 906.9 109.0 906.4 109.7 906.4 C 110.3 906.4 110.9 907.2 110.9 908.2 C 110.9 909.3 110.3 909.8 109.7 909.4 Z M 167.1 907.1 C 166.9 907.0 166.8 906.8 166.8 906.5 C 166.8 905.8 167.3 905.2 168.0 905.2 C 168.3 905.2 168.4 905.3 168.6 905.4 C 168.7 905.7 168.7 905.9 168.7 906.1 C 168.5 906.4 168.4 906.7 168.0 907.0 C 167.6 907.2 167.3 907.2 167.1 907.1 Z M 165.4 906.4 C 165.1 906.4 163.5 905.0 162.0 903.4 C 160.5 901.8 159.5 900.4 159.8 900.4 C 160.1 900.4 161.5 901.7 162.9 903.1 C 163.1 903.3 163.2 903.5 163.4 903.7 C 164.7 905.1 165.7 906.4 165.4 906.4 Z M 82.4 903.6 C 81.7 903.7 80.9 903.7 80.1 903.4 C 77.4 902.6 75.8 899.3 77.4 897.7 C 78.1 897.0 79.1 897.6 79.9 899.2 C 81.9 902.9 85.2 900.1 84.3 895.5 C 83.9 893.6 83.9 891.3 84.3 890.4 C 84.8 888.9 85.7 889.2 88.9 891.8 C 91.1 893.5 92.6 895.4 92.3 896.0 C 91.9 896.5 90.7 896.2 89.5 895.2 C 87.0 892.9 85.9 893.8 85.9 898.1 C 85.9 901.0 84.4 903.1 82.4 903.6 Z M 178.8 888.8 C 178.1 889.1 178.1 888.3 178.4 885.5 C 178.7 883.3 179.0 881.4 179.2 881.4 C 179.3 881.4 180.7 882.8 182.3 884.5 C 184.0 886.4 184.5 887.4 183.4 887.1 C 182.4 886.8 180.8 887.2 179.8 888.1 C 179.4 888.4 179.1 888.7 178.8 888.8 Z M 178.8 888.8 "></path></clipPath><g clip-path="url(#clip0x7fd5cfb8be90)"><image xlink:href="../../670AF0A5-B06C-45B2-A649-BC83FE98871A/assets/E9CE1D2A9EAA0B72B2B2CA44794148CF.jpeg" width="180.00" height="180.00" transform="matrix(1.19, 0.00, -0.00, -1.19, 26.0, 1068.0)"></image></g></g></g></g><text xml:space="preserve" font-family="Phosphate-Inline,Phosphate" font-size="32.5" fill="#C82505" transform="matrix(1.00, 0.00, -0.00, -1.00, 78.6, 810.3)">d</text><text xml:space="preserve" font-family="Phosphate-Inline,Phosphate" font-size="32.5" fill="#C82505" transform="matrix(1.00, 0.00, -0.00, -1.00, 99.2, 810.3)">i</text><text xml:space="preserve" font-family="Phosphate-Inline,Phosphate" font-size="32.5" fill="#C82505" transform="matrix(1.00, 0.00, -0.00, -1.00, 108.8, 810.3)">g</text><text xml:space="preserve" font-family="Phosphate-Inline,Phosphate" font-size="32.5" fill="#C82505" transform="matrix(1.00, 0.00, -0.00, -1.00, 131.5, 810.3)">i</text><text xml:space="preserve" font-family="Phosphate-Inline,Phosphate" font-size="32.5" fill="#C82505" transform="matrix(1.00, 0.00, -0.00, -1.00, 141.1, 810.3)">t</text><text xml:space="preserve" font-family="Phosphate-Inline,Phosphate" font-size="32.5" fill="#C82505" transform="matrix(1.00, 0.00, -0.00, -1.00, 156.2, 810.3)">a</text><text xml:space="preserve" font-family="Phosphate-Inline,Phosphate" font-size="32.5" fill="#C82505" transform="matrix(1.00, 0.00, -0.00, -1.00, 176.6, 810.3)">l</text><path d="M 1474.0 1029.0 L 1641.0 1029.0 L 1641.0 964.0 L 1474.0 964.0 Z M 1473.8 1029.4 " fill="#3D4453"></path><g><clipPath id="clip0x7fd5cfca2250"><path d="M 1463.6 954.2 L 1651.5 954.2 L 1651.5 1039.6 L 1463.6 1039.6 Z M 1463.6 954.2 "></path></clipPath><g clip-path="url(#clip0x7fd5cfca2250)"><text xml:space="preserve" font-family="GillSans-Light,Gill Sans" font-size="50.0" fill="#FEFFFF" transform="matrix(1.00, 0.00, -0.00, -1.00, 1478.3, 980.3)">E</text><text xml:space="preserve" font-family="GillSans-Light,Gill Sans" font-size="50.0" fill="#FEFFFF" transform="matrix(1.00, 0.00, -0.00, -1.00, 1502.9, 980.3)">j</text><text xml:space="preserve" font-family="GillSans-Light,Gill Sans" font-size="50.0" fill="#FEFFFF" transform="matrix(1.00, 0.00, -0.00, -1.00, 1512.3, 980.3)">e</text><text xml:space="preserve" font-family="GillSans-Light,Gill Sans" font-size="50.0" fill="#FEFFFF" transform="matrix(1.00, 0.00, -0.00, -1.00, 1536.2, 980.3)">m</text><text xml:space="preserve" font-family="GillSans-Light,Gill Sans" font-size="50.0" fill="#FEFFFF" transform="matrix(1.00, 0.00, -0.00, -1.00, 1574.8, 980.3)">p</text><text xml:space="preserve" font-family="GillSans-Light,Gill Sans" font-size="50.0" fill="#FEFFFF" transform="matrix(1.00, 0.00, -0.00, -1.00, 1600.2, 980.3)">l</text><text xml:space="preserve" font-family="GillSans-Light,Gill Sans" font-size="50.0" fill="#FEFFFF" transform="matrix(1.00, 0.00, -0.00, -1.00, 1609.6, 980.3)">o</text></g></g></g></svg>